<svg xmlns="http://www.w3.org/2000/svg" viewBox="0 0 1500 1500" width="1500" height="1500"><g transform="translate(1097.0 654.0) rotate(0.0 -536.5 436.0) translate(-121.0 3.0) scale(-5.515943802145718 5.508702106825863)"><svg width="172.591" height="135.059" viewBox="21.936 0.545 172.591 135.059"><path d="M162.145 55.915v10.287H42.893V55.915z" fill="#fdbc42"/><path d="M157.002 5.143h10.287v153.152h-10.287zm-70.047 0h10.287v153.152H86.955z" fill="#939498"/><path d="M188.91 0v10.287H0V0z" fill="#fdbc42"/><path d="M188.91 148.008v10.287H8.277V148.01z" fill="#939498"/><g fill="#010101"><path d="M17.824 148.008v10.287H4.446v-10.287zm176.702 0v10.287h-13.378v-10.287z"/></g></svg></g><g transform="translate(373.0 316.0) rotate(0.0 216.5 171.0) scale(2.5327413854621814 2.5461584276354974)"><svg width="170.961" height="134.32" viewBox="0 0 170.961 134.32"><path d="M53.971 108.165h99.841v13.982H53.971z" fill="#939598"/><path d="M39.818 115.156h131.144v19.164H39.818z" fill="#8f241e"/><path d="M39.818 134.32 0 9.471 17.09 0l36.881 115.156z" fill="#e23d2c"/><path d="M153.812 121.854h10.13v3.939h-10.13z" fill="#020202"/></svg></g><g transform="translate(336.0 60.0) rotate(0.0 81.0 57.5) scale(1.348707488656704 1.3374736866589907)"><svg width="120.115" height="85.983" viewBox="0 0 120.115 85.983"><path d="m26.152 85.157 5.913-15.924a7.98 7.98 0 0 1 7.482-5.203h42.372a7.982 7.982 0 0 1 7.482 5.203l5.913 15.924c.184.496.658.826 1.188.826 15.072 0 26.284-13.934 23.058-28.657L108.225 5.599 101.267 0H84.784l-2.373 3.433H37.98L35.333 0H18.845l-6.958 5.599L.556 57.328C-2.669 72.05 8.542 85.983 23.614 85.983h1.35a1.27 1.27 0 0 0 1.188-.826z" fill="#fdbb3f"/><g fill="#020202"><circle cx="50.739" cy="42.991" r="11.277"/><ellipse cx="38.151" cy="19.535" rx="10.418" ry="9.535"/><path d="M96.281 27.148a5.215 5.215 0 0 1-5.215-5.215v-3.237a5.215 5.215 0 0 1 10.43 0v3.237a5.215 5.215 0 0 1-5.215 5.215zm0 21.014a5.215 5.215 0 0 1-5.215-5.215V39.71a5.215 5.215 0 0 1 10.43 0v3.237a5.215 5.215 0 0 1-5.215 5.215zm-3.673-17.341a5.215 5.215 0 0 1-5.215 5.215h-3.237a5.215 5.215 0 0 1 0-10.43h3.237a5.215 5.215 0 0 1 5.215 5.215zm21.014 0a5.215 5.215 0 0 1-5.215 5.215h-3.237a5.215 5.215 0 0 1 0-10.43h3.237a5.215 5.215 0 0 1 5.215 5.215z"/></g><circle cx="68.183" cy="13.022" fill="#e23d2c" r="4.737"/></svg></g><g transform="translate(228.0 452.0) rotate(23.911994831183527 78.5 63.0) translate(0.0 0.0) scale(3.4584544893823246 3.4479927756341846)"><svg width="45.396" height="32.483" viewBox="0 0 45.396 32.483"><path d="M22.301 24.041H9.261C4.155 24.041 0 19.886 0 14.779c0-5.211 4.239-9.45 9.45-9.45h12.534v4.9H9.45a4.555 4.555 0 0 0-4.55 4.55 4.366 4.366 0 0 0 4.361 4.361h13.04zM6.98 32.936h38.416v3.607H6.98z" fill="#DBD8D3"/><path d="M31.262 32.936H21.113a8.713 8.713 0 0 1-8.713-8.713V0h27.574v24.223a8.712 8.712 0 0 1-8.712 8.713z" fill="#dbd8d3"/></svg></g><g transform="translate(557.0 55.0) rotate(0.0 90.0 59.0) scale(1.3452009954487367 1.32960742777302)"><svg width="133.809" height="88.748" viewBox="0 0 133.809 88.748"><path d="m133.4 68.572-8.385-37.363a21.774 21.774 0 0 0 2.094-9.341C127.109 9.79 117.318 0 105.241 0c-7.153 0-13.502 3.435-17.492 8.744h-5.875V7.275h-29.94v1.469h-5.875C42.07 3.435 35.72 0 28.567 0 16.49 0 6.7 9.79 6.7 21.868c0 3.343.753 6.508 2.094 9.341L.409 68.572c-2.322 10.346 5.547 20.176 16.15 20.176h8.436a4.627 4.627 0 0 0 4.338-3.017L44.087 56.32a4.628 4.628 0 0 1 4.338-3.017h36.958a4.627 4.627 0 0 1 4.338 3.017l14.755 29.412c.673 1.813 4.154 3.017 6.089 3.017h6.685c10.604-.001 18.472-9.831 16.15-20.177z" fill="#E33B2B"/><g fill="#020202"><path d="M107.229 18.069a4.325 4.325 0 0 1-4.325-4.325V11.06a4.325 4.325 0 1 1 8.65 0v2.684a4.325 4.325 0 0 1-4.325 4.325zm0 17.427a4.325 4.325 0 0 1-4.325-4.325v-2.684a4.325 4.325 0 1 1 8.65 0v2.684a4.325 4.325 0 0 1-4.325 4.325zm-3.046-14.381a4.325 4.325 0 0 1-4.325 4.325h-2.684a4.325 4.325 0 1 1 0-8.65h2.684a4.325 4.325 0 0 1 4.325 4.325zm17.427 0a4.325 4.325 0 0 1-4.325 4.325h-2.684a4.325 4.325 0 1 1 0-8.65h2.684a4.325 4.325 0 0 1 4.325 4.325zm-93.85-3.046a4.325 4.325 0 0 1-4.325-4.325V11.06a4.325 4.325 0 1 1 8.65 0v2.684a4.325 4.325 0 0 1-4.325 4.325zm0 17.427a4.325 4.325 0 0 1-4.325-4.325v-2.684a4.325 4.325 0 1 1 8.65 0v2.684a4.325 4.325 0 0 1-4.325 4.325zm-3.046-14.381a4.325 4.325 0 0 1-4.325 4.325h-2.684a4.325 4.325 0 1 1 0-8.65h2.684a4.325 4.325 0 0 1 4.325 4.325zm17.427 0a4.325 4.325 0 0 1-4.325 4.325h-2.684a4.325 4.325 0 1 1 0-8.65h2.684a4.325 4.325 0 0 1 4.325 4.325zm30.127 6.695H61.57a9.636 9.636 0 0 1-9.636-9.636V7.275h29.97v10.899a9.636 9.636 0 0 1-9.636 9.636z"/></g></svg></g><g transform="translate(1392.0 79.0) rotate(0.0 -412.0 602.5) translate(-50.0 0.0) scale(-4.032021295335773 4.025832144515681)"><svg width="191.963" height="299.317" viewBox="12.401 0 191.963 299.317"><path d="m157.308 289.103-35.286-58.683 6.472-53.766 48.229 112.449z" fill="#010101"/><circle cx="161.407" cy="105.504" fill="#dbd8d3" r="10.493"/><path d="M64.986 26.284 57.977 46.28l15.964 1.625-.517-23.051z" fill="#939498"/><path d="m83.713 11.673 4.586 16.795-6.214-1.035z" fill="#dbd8d3"/><path d="M83.059 35.526a7.658 7.658 0 0 1-5.3-5.232c2.491 1.876 4.439 2.218 5.682 2.153.224-4.068.511-8.828.848-13.4.835-11.366-4.96-14.689-9.907-15.5-7.772-1.283-11.475.953-11.917 11.529-.38 9.119 5.5 11.6 5.5 11.6a22.812 22.812 0 0 0 14.951 16.31s-.106-2.731.143-7.46z" fill="#dbd8d3"/><path d="M74.96 11.722S88.267 13.586 90.317 0c0 0-4.481 2.574-12.425 1.959-8.278-.641-14.783-.255-17.92 6.905-2.148 4.9.481 11.525 4.031 14.757-.003 0 8.797.413 10.957-11.899z" fill="#010101"/><circle cx="65.656" cy="23.602" fill="#dbd8d3" r="5.189"/><path d="m77.989 17.555 3.727.599-.192 1.192-3.727-.598z" fill="#010101"/><path d="m76.016 55.488.894-8.712-21.698-2.564-5.303 12.437 25.635 2.794z" fill="#e33b2b"/><path d="M61.193 172.241 0 171.582l27.679-32.063s-15.112-52.235 8.866-76.213c18.88-18.881 39.471-7.818 39.471-7.818z" fill="#8e231d"/><path d="m155.255 110.918-2.112-7.173c-7.058.168-47.407 6.711-61 25.875L103.817 143l50.955-32.2z" fill="#dbd8d3"/><path d="M144.558 117.248 142 105.268c-16.538 1.819-35.355 7.823-46.375 20.254L51.454 68.014s-16.843 17.322-2.9 37.38c24.115 34.685 55.255 37.6 55.26 37.6zM14.52 171.737l119.638.175L113.007 289.1H93.592s-9.322-69.842 6.166-85.36c0 0-65.721 17.608-83.519-9.291-5.692-8.599-1.719-22.712-1.719-22.712z" fill="#e33b2b"/><g fill="#8e231d"><path d="M93.398 289.103v10.214h47.056l-27.641-10.214zm63.91 0v10.214h47.056l-27.641-10.214z"/></g></svg></g><g transform="translate(259.0 173.0) rotate(0.0 274.5 33.0) scale(3.08015125842974 3.0664870138921154)"><svg width="178.238" height="21.523" viewBox="0 0 178.238 21.523"><path d="M0 0h178.238v10.762H0z" fill="#8e231d"/><path d="M13.506 10.762h15.441v10.762H13.506zm136.341 0h15.441v10.762h-15.441z"/></svg></g><g transform="translate(1031.0 205.0) rotate(-22.87455231153644 58.0 1.5) translate(37.0 0.0) scale(1.6050920160509203 0.8317161075686166)"><svg width="45.48" height="3.607" viewBox="23.052 0 45.48 3.607"><path d="M0 0h72.27v3.607H0z" fill="#010101"/></svg></g><g transform="translate(402.0 544.0) rotate(0.0 -78.5 63.0) translate(-0.0 0.0) scale(-3.4584544893823246 3.4479927756341846)"><svg width="45.396" height="32.483" viewBox="0 0 45.396 32.483"><path d="M22.301 24.041H9.261C4.155 24.041 0 19.886 0 14.779c0-5.211 4.239-9.45 9.45-9.45h12.534v4.9H9.45a4.555 4.555 0 0 0-4.55 4.55 4.366 4.366 0 0 0 4.361 4.361h13.04zM6.98 32.936h38.416v3.607H6.98z" fill="#939498"/><path d="M31.262 32.936H21.113a8.713 8.713 0 0 1-8.713-8.713V0h27.574v24.223a8.712 8.712 0 0 1-8.712 8.713z" fill="#939498"/></svg></g><g transform="translate(1112.0 56.0) rotate(9.59018180620154 23.0 73.0) translate(0.0 7.0) scale(0.5424528301886793 0.5885672821091671)"><svg width="84.8" height="236.167" viewBox="0 11.893 84.8 236.167"><path d="m48.129 98.405 11.843-1.44 9.406 77.36-11.843 1.44zm-31.265 74.137 9.406-77.361 11.843 1.44-9.406 77.361z" fill="#939498"/><circle cx="42.4" cy="205.66" fill="#e33c2b" transform="matrix(.1602 -.9871 .9871 .1602 -167.3963 214.5696)" r="42.4"/><circle cx="42.4" cy="205.66" fill="#8f231e" r="28.12"/><path d="M29.48 0h25.89a8.67 8.67 0 0 1 8.67 8.67V88.3c.011 9.665-7.815 17.509-17.48 17.52h-8.31c-9.665 0-17.5-7.835-17.5-17.5V8.68A8.67 8.67 0 0 1 29.41 0z" fill="#e33c2b"/></svg></g><g transform="translate(1450.0 321.0) rotate(0.0 -315.5 539.0) translate(-3.0 0.0) scale(-8.357615894039736 8.376784340541928)"><svg width="69.757" height="128.57" viewBox="0.359 0 69.757 128.57"><path d="m63.858 121.978-8.062-5.143H31.658l-.008.001c-.148-.024-7.652 4.449-7.652 4.449l1.942 3.928 8.098-4.686 5.55 2.161 8.124-.032 4.511-2.128 9.508 5.455z" fill="#939598"/><path d="M39.365 70.175h8.346v52.48h-8.346z" fill="#939598"/><circle cx="22.728" cy="124.499" fill="#020202" r="4.189"/><circle cx="65.228" cy="124.499" fill="#020202" r="4.189"/><path d="M53.42 41.527c-3.12-2.824-7.222-3.521-11.303-3.799-5.474-.373-10.717-.205-13.899 1.04-2.65 1.037-2.772 5.469.442 5.218 3.873-.303 7.75-.688 11.63-.863 1.646-.074 3.369-.219 4.972.229 1.915.534 3.596 1.836 5.186 2.973 2.623 1.874 5.364-2.634 2.972-4.798z" fill="#fdbb3f"/><path d="M62.282 60.074s-2.889-7.535-4.688-11.137c-1.556-3.115-3.527-5.71-7.004-6.721-3.674-1.068-7.959-1.009-11.749-1.005-4.289.005-18.76.252-18.76.252l4.832 4.616s16.056-.335 22.67.622c3.304.478 4.528 2.365 5.902 5.189 1.506 3.096 3.976 9.513 3.976 9.513z" fill="#939598"/><path d="M75.5 73.337v.835H16.345L0 2.592 7.31.667c.335-.09.67-.13 1-.13 1.885 0 3.6 1.375 4.07 3.43 2.08-2.095 10.595 2.995 12.17 9.895 1.91 8.36-4.67 22.95-3.47 28.21l.035.15c4.82.115 12.765 8.56 16.765 16.505.465.92.79 1.87 1 2.835 4.365-.91 8.815-1.645 12.735-2.345 10.945-1.95 20.02 2.705 22.955 9.46.635 1.455.93 3.055.93 4.66z" fill="#fdbb3f"/></svg></g><g transform="translate(106.0 546.0) rotate(0.0 77.5 62.0) translate(0.0 0.0) scale(3.4143977442946514 3.393262731576499)"><svg width="45.396" height="32.122" viewBox="0 0 45.396 32.122"><path d="M22.301 24.041H9.261C4.155 24.041 0 19.886 0 14.779c0-5.211 4.239-9.45 9.45-9.45h12.534v4.9H9.45a4.555 4.555 0 0 0-4.55 4.55 4.366 4.366 0 0 0 4.361 4.361h13.04zM6.98 32.936h38.416v3.607H6.98z" fill="#8F241E"/><path d="M31.262 32.936H21.113a8.713 8.713 0 0 1-8.713-8.713V0h27.574v24.223a8.712 8.712 0 0 1-8.712 8.713z" fill="#8F241E"/></svg></g><g transform="translate(543.0 911.0) rotate(0.0 -148.0 26.0) scale(-4.869942909790889 5.054923690094293)"><svg width="60.781" height="10.287" viewBox="0 0 60.781 10.287"><path d="M55.242 7.314V2.973h5.539V0H0v10.287h60.781V7.314z" fill="#8e231d"/><path d="M8.965 2.973h47.569v4.34H8.965z" fill="#dbd8d3"/></svg></g><g transform="translate(278.0 856.0) rotate(0.0 114.0 29.5) scale(5.501399478814786 5.735394186837756)"><svg width="41.444" height="10.287" viewBox="0 0 41.444 10.287"><path d="M38.473 7.313v-4.34h2.971V0H0v10.287h41.444V7.313z" fill="#e33b2b"/><path d="M3.266 2.973h35.207v4.34H3.266z" fill="#dbd8d3"/></svg></g><g transform="translate(-11.0 1692.0) rotate(0.0 773.5 -147.5) scale(1.530028919227924 -1.5292580765562145)"><svg width="1011.092" height="192.904" viewBox="0 0 1011.092 192.904"><path d="M0 192.904h1011.092V0L0 21.569z" fill="#dbd8d3"/></svg></g><g transform="translate(980.0 1284.0) rotate(0.0 102.5 42.5) translate(0.0 0.0) scale(7.18894655631926 7.237122179650916)"><svg width="28.516" height="6.356" viewBox="0 0 28.516 6.356"><path d="M28.516 0v11.745H0V0z" fill="#939598"/></svg></g></svg>