<svg xmlns="http://www.w3.org/2000/svg" viewBox="0 0 1080 1080" width="1080" height="1080"><g transform="translate(348.0 850.0) rotate(0.0 203.5 292.5) translate(0.0 0.0) scale(1.049791589286451 1.0495664483209628)"><svg width="387.696" height="144.822" viewBox="0 0 387.696 144.822"><path d="M19.019 405.932s87.943-497.106 165.736-110.748c0 0-19.081-343.698 84.875-289.358s118.067 551.547 118.067 551.547-193.5-94.065-265.432-23.443c0 0-51.623-37.689-122.264-41.765z" fill="#3FB1B5"/></svg></g><g transform="translate(645.0 509.0) rotate(0.0 189.5 272.0) translate(0.0 0.0) scale(0.9775700548883661 0.9760070904044508)"><svg width="387.696" height="505.119" viewBox="0 0 387.696 505.119"><path d="M19.019 405.932s87.943-497.106 165.736-110.748c0 0-19.081-343.698 84.875-289.358s118.067 551.547 118.067 551.547-193.5-94.065-265.432-23.443c0 0-51.623-37.689-122.264-41.765z" fill="#3FB1B5"/></svg></g><g transform="translate(83.0 311.0) rotate(0.0 370.5 348.0) scale(0.4022146230255659 0.4023121387283237)"><svg width="1842.3" height="1730" viewBox="0 0 1842.3 1730"><path d="M1414.8 1382c67-11 123-31 198-72s167-109 201-63c60.7 82.1-135 201-399 135z" fill="#5b2448"/><path d="M1638.8 1303.9s-3.2 24-7.9 56.8c-1.7 11.5-3.5 24-5.5 36.9-.2 1.2-.3 2.3-.5 3.4-7 46-15.4 96.6-22.1 123.1-.3 1.3-.7 2.6-1 3.7-14 52-173-9-176-44-2.2-26.2-4.5-47.9-6.3-64.4-.3-2.5-.6-4.9-.8-7.2-2.3-19.8-3.8-30.4-3.8-30.4z" fill="#f4ada2"/><path d="M1638.8 1303.9s-3.2 24-7.9 56.8c-45 17.8-137 34.2-216 21.2z" fill="#9b3c82"/><path d="M428.6 1641.4c3.2-98.4 25.5-141.1 47.2-197.4 10-26 92.6-146.1 40-188-54-43-188 91-87.2 385.4z" fill="#5b2448"/><path d="m475.8 1444-47.2 197.4s-31.9-14.5-70.9-32.8c-48.8-23-108.6-52-130.9-66.6-46-30 47.9-144.6 101-129 28 8.2 54.1 14.4 76.3 19 4.8 1 9.4 1.9 13.8 2.8 3.7.7 7.3 1.4 10.7 2 29.1 5.3 47.2 7.2 47.2 7.2z" fill="#f4ada2"/><path d="M428.6 1641.4c-14.6-34.9-29.2-106.9-10.7-206.6 3.7.7 7.3 1.4 10.7 2 29.1 5.3 47.2 7.2 47.2 7.2s3.5 195.5-47.2 197.4z" fill="#9b3c82"/><path d="m404.1 1432-46.4 176.6c-48.8-23-108.6-52-130.9-66.6-46-30 47.9-144.6 101-129 28 8.2 54.1 14.4 76.3 19z" fill="#66b0f0"/><path d="m360.2 1421.9-46.7 165.6c3 1.5 6.1 2.9 9.1 4.4l47.2-167.6c-3.1-.8-6.4-1.6-9.6-2.4z" fill="#fff"/><path d="M1625.4 1397.7c-.2 1.2-.3 2.3-.5 3.4-7 46-15.4 96.6-22.1 123.1-.3 1.3-.7 2.6-1 3.7-14 52-173-9-176-44-2.2-26.2-4.5-47.9-6.3-64.4-.3-2.5-.6-4.9-.8-7.2z" fill="#66b0f0"/><path d="m1423 1453.8 195.2-10.5c.5-3.3 1.1-6.7 1.6-10.1l-197.8 10.6c.4 3.2.7 6.5 1 10zM13.3 1713.1c-11.4-17.1-18.1-56.9 2.4-116.9l100-291.4c96 49.1 164 85.1 212 108.1-19 34-43.6 28.6-61.6 54.9-20.9 30.5-13.7 41.2-66.2 113.4-.8 1.2-1.6 2.4-2.4 3.5-.2.3-.4.7-.7 1-13.7 20.1-29.3 38.7-46.6 55.8-67.1 65.4-130.2 71-136.5 71.4h-.4c.1.2 0 .2 0 .2z" fill="#fff"/><path d="M13.3 1715.6c-.8 0-1.6-.4-2.1-1.1C-1.1 1696-7 1655 13.4 1595.4l100-291.4c.4-1.3 1.9-2 3.2-1.6.1 0 .2.1.3.1 32.7 15.7 64.9 32.9 96.1 49.5 41.2 22 80.1 42.8 116.4 58.1 1.3.5 1.9 2 1.3 3.3s-2 1.9-3.3 1.3c-36.5-15.4-75.5-36.2-116.8-58.3-30.3-16.2-61.6-32.9-93.3-48.2L18.1 1597c-19.4 56.5-14.6 95.4-3.5 113.5 10.7-.9 73.3-8.6 137-70.7 17.2-16.9 32.7-35.5 46.3-55.4l.7-1c.3-.4.5-.8.8-1.2.5-.8 1.1-1.6 1.6-2.4 10.9-15.1 25.2-37.3 30-48.3.6-1.3 2-1.8 3.3-1.3 1.3.6 1.8 2 1.3 3.3-5.2 11.8-19.6 34.2-30.6 49.2-.5.7-1 1.5-1.5 2.2-.3.4-.6.8-.8 1.2l-.7 1c-13.8 20.2-29.5 39-46.9 56.1-66.8 65.1-132.8 71.6-140.9 72.2h-.8c0 .2 0 .2-.1.2z" fill="#5b2448"/><path d="M232 1477.9c-1.4 0-2.5-1.1-2.5-2.5 0-.2 0-.3.1-.5 5.9-28.5 2.8-37.4-3.2-55.2-1.6-4.7-3.4-10.1-5.3-16.6-9.1-31-3.3-42.8-3.1-43.3.6-1.2 2.1-1.7 3.4-1.1 1.2.6 1.7 2.1 1.1 3.3-.1.2-4.9 11.1 3.4 39.6 1.9 6.4 3.7 11.7 5.3 16.4 6.1 18 9.5 27.9 3.4 57.8-.4 1.3-1.4 2.1-2.6 2.1zM32.6 1712.5c-1.1 0-2.1-.7-2.4-1.8-11.2-38.2-8.2-77.7 8.9-117.5 11.1-25.9 28.3-52 51.2-77.4 14-15.6 15.9-27.6 17.8-39.3 1.6-9.9 3.3-20.1 12.1-31.9 7-9.3 14.8-14.3 22.4-19.2 10-6.4 19.5-12.5 27.4-28.2 17.3-34.6 1.5-61.5 1.4-61.8-.7-1.2-.3-2.7.8-3.4 1.2-.7 2.7-.3 3.4.8.7 1.2 17.5 29.5-1.2 66.6-8.5 16.9-19 23.7-29.1 30.2-7.5 4.8-14.6 9.4-21.1 18-8.1 10.8-9.6 20-11.2 29.7-2 12.3-4.1 25.1-19 41.8-22.5 25.1-39.4 50.7-50.3 76.1-16.6 38.7-19.6 77.1-8.7 114.1.4 1.3-.4 2.7-1.7 3.1-.2 0-.4.1-.7.1z" fill="#5b2448"/><path d="M122.7 1413.5c-1.6 0-3.2-.3-4.8-.8-5.9-2-10-7.6-11.6-15.7-1.6-7.6-.7-16.8 2.3-25.7s8-16.6 13.9-21.7c6.3-5.4 13-7.3 18.8-5.2s10 7.6 11.6 15.7c1.6 7.6.7 16.7-2.3 25.7s-8 16.6-13.9 21.7c-4.6 4-9.4 6-14 6zm13.9-64.8c-3.4 0-7.1 1.6-10.8 4.8-5.3 4.5-9.7 11.4-12.4 19.5s-3.5 16.2-2.2 23c1.3 6.3 4.3 10.6 8.4 12 4.1 1.4 9.1-.1 14-4.3 5.3-4.5 9.7-11.4 12.4-19.5s3.5-16.2 2.2-23c-1.3-6.3-4.3-10.6-8.4-12-1.1-.3-2.1-.5-3.2-.5z" fill="#5b2448"/><path d="M193.2 1603.2h-.1c-4.1-.1-7.4-3.5-7.4-7.6 1-50.2-28.1-77.3-28.4-77.6-3.1-2.8-3.3-7.5-.6-10.6 2.8-3.1 7.5-3.3 10.6-.6l.1.1c1.4 1.3 34.4 32.1 33.3 89-.1 4-3.4 7.3-7.5 7.3zm-29 33h-.8c-4.1-.4-7.1-4.1-6.7-8.2 4.9-47.7-25.2-79.3-25.5-79.6-2.9-3-2.8-7.7.1-10.6 3-2.9 7.7-2.8 10.6.1 1.4 1.5 35.3 37 29.7 91.6-.3 3.8-3.5 6.7-7.4 6.7zm-30 28.2h-.9c-4.1-.5-7.1-4.2-6.6-8.3 4.8-42.5-20.3-70.5-20.6-70.8-2.7-3.1-2.5-7.8.6-10.6 3-2.7 7.6-2.5 10.4.4 1.2 1.3 30.1 33.1 24.5 82.7-.4 3.8-3.6 6.6-7.4 6.6z" fill="#ffcf2d"/><path d="M1839.8 1678.2c-12.7 16.6-48.9 36.2-113.4 36.2h-313.9c6.3-55.4 19.3-134.4 13.3-230.4 32.6 6.7 35.7 30.4 67 39 36.3 10 71.3-7.2 158.3 19.3 1.4.4 2.8.8 4.2 1.1l1.2.3c23.9 6.5 47 15.4 69.2 26.4 85.2 42.9 111.5 101.6 114 107.6.1.1.1.3.1.3z" fill="#fff"/><path d="M1726.4 1716.9h-313.9c-1.4 0-2.5-1.1-2.5-2.5v-.3l.3-2.1c10-85.4 19.5-166 12.6-227.2-.2-1.4.8-2.6 2.2-2.8s2.6.8 2.8 2.2c7 61.6-2.5 142.3-12.5 227.7h311.1c61 0 96.8-17.4 110.6-34.1-4.4-9.9-32.5-67.5-113.5-108.3-22-10.9-45-19.7-68.7-26.2l-1.1-.3c-.5-.1-.9-.2-1.4-.4-1-.2-1.9-.5-2.9-.8-19.2-5.9-44.6-10.8-56.2-11.8-1.4-.1-2.4-1.3-2.3-2.7s1.3-2.4 2.7-2.3c11.9 1 37.8 6.1 57.2 12 .9.3 1.8.5 2.7.7.5.1 1 .3 1.5.4l1.2.3c24 6.6 47.3 15.5 69.6 26.6 84.9 42.7 113 104 116.2 111.6 0 0 0 .1.1.1.1.2.1.3.2.4l.1.2c.3.8.2 1.7-.3 2.4-14.1 18-51.7 37.2-115.8 37.2z" fill="#5b2448"/><path d="M1426.7 1598.2c-1 0-1.6 0-1.7-.1-1.4-.1-2.4-1.3-2.3-2.7s1.3-2.4 2.7-2.3c.3 0 18.9 1.3 44.1-16.4 5.5-3.9 10-7.4 14-10.4 15.3-11.8 23.8-18.3 54.6-22.3 1.4-.2 2.6.8 2.8 2.2s-.8 2.6-2.1 2.8c-29.4 3.8-37 9.6-52.1 21.3-4 3.1-8.6 6.6-14.2 10.6-22.8 15.9-40.4 17.3-45.8 17.3zm305.1 95.3c-5.3 0-10.6-.2-16-.6-28.6-2.2-59.4-10.1-91.6-23.6-19.7-8.3-31.9-6.2-43.8-4.2-10.1 1.7-20.5 3.5-34.8-1.1-11.3-3.6-18.7-9.5-25.9-15.2-9.5-7.5-18.5-14.6-36.3-17-39.1-5.3-59.8 18.8-60 19.1-.9 1-2.5 1.1-3.5.2s-1.1-2.4-.3-3.4c.9-1.1 22.6-26.5 64.5-20.8 19.1 2.6 29.1 10.4 38.7 18 7.1 5.6 13.9 11 24.3 14.3 13.1 4.2 22.5 2.6 32.4.9 12.5-2.1 25.5-4.3 46.5 4.5 31.6 13.3 61.9 21.1 90 23.2 42.8 3.2 80.8-6.6 112.9-29.3 1.1-.8 2.7-.5 3.5.6s.5 2.7-.6 3.5c-28.9 20.6-62.5 30.9-100 30.9z" fill="#5b2448"/><path d="M1479 1699.3c-20.6 0-36.7-9.9-36.7-22.5s16.1-22.5 36.7-22.5 36.7 9.9 36.7 22.5-16.1 22.5-36.7 22.5zm0-40.1c-17.2 0-31.7 8-31.7 17.5s14.5 17.5 31.7 17.5 31.7-8 31.7-17.5-14.5-17.5-31.7-17.5z" fill="#5b2448"/><path d="M1597.1 1608.6c-4.1 0-7.5-3.4-7.5-7.5 0-1 .2-2 .6-3 .8-1.8 19.5-43.5 74.7-61.2 3.9-1.3 8.2.8 9.5 4.8 1.3 3.9-.8 8.2-4.8 9.5h-.1c-48.4 15.5-65.3 52.6-65.5 52.9-1.2 2.8-3.9 4.5-6.9 4.5zm38.1 14.7c-4.1 0-7.5-3.4-7.5-7.5 0-1.2.3-2.3.8-3.4 1-1.9 23.9-46 78.3-58.7 4-.9 8.1 1.6 9 5.6s-1.6 8.1-5.6 9c-47.4 11-68.2 50.5-68.4 50.9-1.2 2.5-3.8 4.1-6.6 4.1zm44 11.8c-4.1 0-7.5-3.4-7.5-7.5 0-1.2.3-2.5.9-3.5.9-1.6 21.9-39.8 71.5-50.7 4-.9 8.1 1.6 9 5.6s-1.6 8.1-5.6 9h-.2c-42.9 9.4-61.3 42.8-61.5 43.2-1.3 2.3-3.8 3.9-6.6 3.9z" fill="#ffcf2d"/><path d="M905.1 196.7C865.8 233 785.8 262 707.8 240c-97.1-27.4-177-7-210 84-19.1 52.7-44.8 86.3-88 112-84 50-74 170 20 240 58-28 474.6-268.5 474.6-268.5l62.8-192.9zM1093.8 823c-78 57-180.1 107.2-303 122.9-119 15.1-220-11.9-238 28.1-22 49 255 116 541-151z" fill="#5b2448"/><path d="M673.2 951.5c-20.4 122.5 3.6 272.5 86.6 479.5 0 0-125-62-244-175 60 61-54.6 162.8-78 287-13 69-9.2 98.4-9.2 98.4s418 177.1 538.6 30.4 90.6-494.8 90.6-494.8 205-49 314-116.8c1 65.8 28 210.8 43 321.8 0 0 103.3 1.8 200-63 94-63 167-112 199-72 0 0-103-134-188-303-62.9-125-134-221-532-121-403.1 101.3-420.6 128.5-420.6 128.5z" fill="#f94f46"/><path d="M844.8 1470c.8 0 1.6-.5 1.9-1.3.4-1-.1-2.2-1.2-2.6-.5-.2-49.6-18.5-88.2-41.5l2.4 6c38.2 22 84 39.1 84.5 39.2.1.2.4.2.6.2zm532-495.7c.1-1.2-.6-2.2-1.7-2.3s-2.1.6-2.2 1.7c-3.7 29.5-5.4 59.3-5.1 89 1.3-.8 2.7-1.6 4-2.4-.3-28.8 1.4-57.5 5-86zm-337.8-13c-.2-1.1-1.2-1.8-2.3-1.6s-1.8 1.2-1.6 2.3c14.3 80.1 17.3 126.7 22.6 211.4l.2 3.5c.4-.1 1.8-.4 3.9-1l-.2-2.8c-5.2-84.8-8.2-131.5-22.6-211.8z" fill="#fcb6b1"/><path d="M1178.8 727c55-47 77.8-112.9 93-154 30-81 64-119 100-119 51.4 0-3 219-193 273z" fill="#5b2448"/><path d="M699.7 656.1c-.2 0-.4 0-.5-.1-62.7-16.9-150.3-48.2-211.2-101.8-19.8-17.4-34.6-35.2-44.1-53-8.5-15.9-12.1-30.9-10.5-43.3 2.2-16.8 14-26.8 31.5-26.8 35.4 0 54.4 39 72.7 76.8 10.6 21.9 21.6 44.5 35.7 59.9 58.1 63.3 126.3 84.3 127 84.6 1.1.3 1.7 1.4 1.3 2.5-.3.6-1 1.2-1.9 1.2zM464.8 435c-15.5 0-25.6 8.5-27.5 23.4-4 30.4 24.9 67.9 53.3 92.8 50.1 44.1 118.6 73 176 91.2-36.2-18-68.8-42.4-96.2-72-14.5-15.8-25.6-38.7-36.4-60.8-18.7-38.4-36.3-74.6-69.2-74.6z" fill="#ffcf2d"/><path d="M1682.8 360c-77 103-75.4 226.7-175 339-110 124-217 87-329 28l122-217c10 6.2 22.2 14.7 33.1 22.5 2.2 1.6 4.4 3.2 6.5 4.7 12.2 8.8 21.4 15.8 21.4 15.8s85-184 208-310c133.9-137.1 102-60 102-60 158-112 72-12 72-12 93.3-53.7 19.7 25.7 19.7 25.7 74.8-30.9-5.5 40.1-7.2 41.6 62.3-30.6-7.8 33.8-73.5 121.7z" fill="#f4ada2"/><g fill="#9b3c82"><path d="M1336.8 611.5c0 1.4 1.1 2.5 2.5 2.5 1.2 0 2.2-.8 2.4-1.9 5-20.2 11.7-40 20-59.1-.2-.2-1.7-1.3-4.1-3.1-8.6 19.7-15.6 40.2-20.8 61.1zM1632 294.4c-.2.3-.2.7-.2 1.1 0 1.4 1.1 2.5 2.5 2.5 1 0 1.9-.6 2.3-1.4 8.4-18.1 13.4-35.5 18.2-52.3 6.1-21.2 12.4-43.2 25.7-66.6.2-.3.3-.7.3-1.1-2.8 2-5.8 4-8.8 6.2-10.9 21-16.6 40.8-22.1 60.1-4.7 16.6-9.6 33.8-17.9 51.5zm60.7-76.8c-.6.5-.9 1.2-.9 1.9 0 1.4 1.1 2.5 2.5 2.5.6 0 1.2-.2 1.6-.6s42.4-35.4 61.3-57.3l.1-.1c.2-.2.3-.5.4-.7-4 2.1-8.5 4.6-13.4 7.4-20.6 21-51.2 46.6-51.6 46.9zm17.1 24.9c0 1.4 1.1 2.5 2.5 2.5.5 0 1-.2 1.5-.5.4-.3 37.4-27.4 61.3-52.2-3.3 1.1-7.1 2.6-11.5 4.4-23.1 22.1-52.4 43.6-52.7 43.8-.7.5-1.1 1.2-1.1 2zm10 24c0 1.4 1.1 2.5 2.5 2.5.5 0 1-.1 1.4-.4.3-.2 27.4-18.3 47.3-36.2.2-.1.3-.3.4-.5-3.8 1.2-8.7 3.3-15.2 6.5-17.2 14-35.1 25.9-35.3 26.1-.7.4-1.1 1.2-1.1 2zm-379.4 270.7C1304.8 583 1268.8 692 1178.8 727l122-217c10 6.2 22.2 14.7 33.1 22.5 2.2 1.6 4.4 3.2 6.5 4.7z"/></g><path d="M1030.3 373c33.4-35.3 87.5 12 157.5 45s184 36 184 36-56-4-100 119c-46.4 129.8-93 154-93 154-47-26-124-83-124-83 13 85 39 179 39 179-63 43-127 94-294 121-120.6 19.5-225-11-247 30 47-106 93-231 114-290 12-13 33-30 33-30s-94.6-38-142-102c-43-58-46-115-102-120 30-6 78-4 190-57 141.9-67.1 209-83 234-24z" fill="#ffcf2d"/><path d="M1029.8 375c0-1.1-.9-2-2-2h-.1c-1.1 0-2 .9-2 2-.8 87 21.5 224 29.4 269.3.7.5 2.3 1.7 4.7 3.4-7.1-40.4-30.8-183.2-30-272.7zM825 515.2c.6-.9.4-2.2-.5-2.8s-2.2-.4-2.8.5c-36.3 52.5-80.9 101.7-126 139.3 2.6 1.1 4.1 1.7 4.1 1.8 44.9-37.6 89.1-86.6 125.2-138.8zm47.1-88.2c-.2.3-.3.7-.3 1 0 1.1.9 2 2 2 .7 0 1.4-.4 1.7-1 .2-.4 21.3-36.9 8.6-77.4l-4.3-.6c-.1-.3-.3-.6-.4-.8 14.1 39.7-7.1 76.4-7.3 76.8z" fill="#fff"/><path d="M1371.8 454h-.5z" fill="#ffcf2d"/><path d="M1135.6 245.5c-10 9.9-48.5 13.7-67.4 13.5-.2.1-.5.2-.7.4-25.4 11.7-34.9 74.5-37.1 113.5-.4 6.4-.5 12.2-.5 17-22 18-83 41-150-39 0 0 61-56 74-114 .4-2.4-5-26.6-8.7-41.6-1.7-6.8-3-11.7-3.3-11.7-4.1 1.6-7.8 3.1-11.1 4.3-.5.2-.9.4-1.4.5l-1 .4c-.6.2-1.1.4-1.7.6-1.2.4-2.4.9-3.6 1.3-.4.2-.9.3-1.3.5-4.2 1.5-7.7 2.7-10.6 3.6-.1 0-.1.1-.2.1-.4.1-.9.3-1.3.4-.2.1-.5.1-.7.2s-.3.1-.5.2h-.2l-.9.3c-.4.1-.7.2-1.1.4v-.1l.2-2.2.6-5.9.3-3.5L924 16.1c.4-.2.9-.4 1.3-.7s.9-.5 1.3-.7c.1 0 .1-.1.2-.1C940.1 7.6 954.4 3 969.2.9c14.3-1.9 28.8-.9 42.6 3 1.7.5 3.3 1 5 1.5s3.3 1.1 4.9 1.7 3.2 1.3 4.8 2c3.5 1.5 6.9 3.2 10.2 5.1 1.3.7 2.5 1.4 3.7 2.2 3 1.8 5.9 3.8 8.8 5.9 1.4 1 2.8 2.1 4.2 3.2.7.5 1.4 1.1 2.1 1.7 1.4 1.1 2.7 2.3 4 3.5.7.6 1.4 1.3 2.1 1.9l.9.9 2.1 2.1 1.5 1.5 1.5 1.6c.5.5 1 1 1.5 1.6 1.5 1.6 2.9 3.2 4.3 4.8.5.5.9 1.1 1.4 1.6s.9 1.1 1.4 1.7l2.7 3.3c.8 1 1.5 2 2.3 2.9 1 1.3 2 2.7 3 4 .8 1.1 1.7 2.3 2.5 3.4 2.4 3.4 4.7 7 6.9 10.5s0 .1.1.1c2.2 3.6 4.3 7.3 6.3 11 .7 1.2 1.4 2.5 2.1 3.7 2 3.5 4 7 6.1 10.5 2.8 4.5 6 10 10 13.6 4 3.5 9.2 4.9 14.2 6 10.9 2.1 5.3 17-.9 23.1 6.3 19.6 28.6 80.7 4.1 105z" fill="#f4ada2"/><path d="M1102.2 87.3c-63.6 60.3-135 85.9-135 85.9l88.3-70.4 35.7-28.4 2.5-2s0 .1.1.1c2.9 4.9 5.6 9.9 8.4 14.8z" fill="#9b3c82"/><circle cx="1038.4" cy="187.8" fill="#e57281" opacity=".52" transform="matrix(.2298 -.9732 .9732 .2298 617.0485 1155.2742)" r="26.8"/><path d="M1050.1 112.2c-10.8 10.1-12.5 24.4-7 28.9s18.3-.5 27-12.4c9-12.3 12.2-25 7-28.9-5.4-4-16.3 2.4-27 12.4z" fill="#5b2448"/><path d="M1123.3 189.9c-1.3 1.5-2.9 2.8-4.7 3.6s-3.7 1.4-5.6 1.7c-3.9.6-7.9 0-11.6-1.6-1.8-.9-3.5-2-4.9-3.3-1.5-1.4-2.7-2.9-3.7-4.6-2-3.4-2.7-7.5-2-11.4.3-1.2 1.5-2 2.7-1.7.9.2 1.6 1 1.8 1.9v.1c.5 4.1 2.6 7.9 5.8 10.6 1 .9 2.2 1.6 3.4 2.2 2.5 1.1 5.2 1.7 8 1.6 2.8 0 5.5-.7 7.9-2.1l.1-.1c1.1-.7 2.4-.3 3.1.7.4.6.4 1.7-.3 2.4z" fill="#9b3c82"/><path d="M1072.9 138.3c3.9-4.9 13.6-16.6 19.8-30.7.9-2 3.2-2.9 5.1-2 5.1 2.3 12.7 7.4 7.3 16.5-6.7 11.2-24.4 20.8-31.2 19.4-1.1-.2-1.8-1.3-1.5-2.4.2-.3.3-.5.5-.8z" fill="#5b2448"/><path d="M915.2 201.6c-.8.5-1.9 1-3 1.5-30.2 13.8-168.3 50.7-185.7 12.8-13.9-30.3 74.5-72.7 116.1-90.7 1.6-.7 3.2-1.4 4.6-2 9.1-3.9 15.2-6.3 16.1-6.6h.1z" fill="#f94f46"/><path d="M915.2 201.6c-.8.5-1.9 1-3 1.5-14.7-2.6-58.8-19.2-69.6-77.9 1.6-.7 3.2-1.4 4.6-2 9.1-3.9 15.2-6.3 16.1-6.6h.1c.1 0 19.6 62 51.8 85z" fill="#5b2448"/><path d="M1093.8 72.6c-2.9 3.7-7.2 8.6-11 12.6 0 .1-.1.1-.1.1-6.1 6.4-13.7 13.8-22.2 21.6-.7.6-1.4 1.2-1.9 1.8-27.9 25.1-64.8 53.4-91.3 64.6-8.9 3.8-16.5 6.9-23.1 9.6l-2.4.9c-4.1 1.6-7.8 3.1-11.1 4.3-.5.2-.9.3-1.4.5l-1 .4c-.6.2-1.1.4-1.7.6-1.2.5-2.4.9-3.6 1.3-.4.2-.9.3-1.3.5-4.3 1.5-7.9 2.7-10.8 3.7-.4.1-.9.3-1.3.4s-.8.2-1.2.4-2.5.6-3.4.9c-61-45.3-57.2-139.6 19-180.6.8-.4 1.7-.9 2.5-1.3.1 0 .1-.1.2-.1 13.3-7 27.6-11.6 42.4-13.7 33.3-4.5 65.8 7.1 90.4 29.6 1.7 1.6 3.4 3.2 5 4.8 8.1 8.2 15.5 17.1 22.1 26.5 2.7 3.4 5 7 7.2 10.6z" fill="#f94f46"/><path d="M967.2 173.3s-30.2-14-53.4 4.2c-21.8 17.2-5.5 54.1 45.7 60.4 10.4 1 20.8.4 31-1.9z" fill="#f4ada2"/><path d="M1068.2 259.1c-12.4-.7-22.7-2.6-36.6-5.9-6.9-1.6-17.9-5.2-22.1-.2-5.4 6.3 7.1 29.5 34.1 41.6 5.7-16.9 13.4-30.3 23.9-35.1.2-.2.4-.3.7-.4z" fill="#5b2448"/><path d="M977.2 238.8c1.3-.5 1.9-1.9 1.4-3.2s-1.9-2-3.2-1.5c-.2.1-9.2 3.3-21.6 2.8-.4 1.7-.8 3.4-1.3 5.1 1.3.1 2.5.1 3.8.1 7.1.1 14.2-1 20.9-3.3zm1.2-26.8c-.6 0-1.2-.2-1.7-.7-22.6-21-44.4-11.2-45.3-10.8-1.3.5-2.7-.1-3.3-1.3-.5-1.2 0-2.6 1.1-3.2 1-.5 25.6-11.7 50.8 11.6 1 .9 1.1 2.5.1 3.5-.4.6-1 .9-1.7.9z" fill="#9b3c82"/><path d="M1093.8 72.6c-2.9 3.7-7.2 8.6-11 12.6 0 .1-.1.1-.1.1-6.1 6.4-13.7 13.8-22.2 21.6-.7.6-1.4 1.2-1.9 1.8-8.5-6.9-18.2-23.1-17.5-37.1s8.4-26.7 23.7-36c8.1 8.2 15.5 17.1 22.1 26.5 2.4 3.3 4.7 6.9 6.9 10.5z" fill="#5b2448"/><path d="M1137.8 855c10 9 28 22 57 54 53 58.5-16.8 25.6-18 25 43.8 58.5-65-11-65-11 84 87-46 3-159.5-18.9-88.2-17-231.1 20.7-365-8.5-38.4-8.4-76.1-22.2-111.5-44.5-126-79.1-39.2-238.8 16.2-320.7 12.1-17.8 22.7-32 29.3-40.8 9.7 18.5 20 39.9 35.8 61.3.2.3.5.7.7 1 8.4 11.2 17.9 21.5 28.2 30.9.8.7 1.6 1.5 2.4 2.2 6.7 6 13.7 11.7 20.7 16.9.9.7 1.7 1.3 2.6 2 1 .7 2 1.5 3 2.2l3 2.1c2 1.4 3.9 2.8 5.9 4.1l2.7 1.8c1.1.7 2.2 1.5 3.2 2.2.9.6 1.9 1.2 2.8 1.8 1 .6 1.9 1.2 2.9 1.8.5.3 1 .7 1.6 1 .9.6 1.9 1.2 2.8 1.8s1.9 1.2 2.8 1.7 1.8 1.1 2.8 1.7c.8.5 1.6.9 2.3 1.4 1.1.7 2.2 1.3 3.3 1.9.7.4 1.5.8 2.2 1.3 1.2.7 2.3 1.3 3.4 1.9.6.3 1.1.6 1.7.9 8 4.4 15.3 8.2 21.4 11.2l1.5.7c5.1 2.5 9.4 4.4 12.6 5.8.3.2.7.3 1 .4 2.9 1.3 4.7 2 5.1 2.2h-.1l-.1.1-27.2 25.1-5.5 5h1.1c91.9 1.8 284.9 53.7 417.7 108.7h.3c17.1-.7 32.6-3.7 48.9-6.7 38-7 41 1 3 30 36 17 58.7 31.8 73.5 46 59.5 57-35.5 11-73.5-7z" fill="#f4ada2"/><path d="M699.7 654v.2C647.8 648 534.8 604 492 530.5c12.1-17.8 22.7-32 29.3-40.8 9.7 18.5 20 39.9 35.8 61.3.2.3.5.7.7 1 8.4 11.2 17.9 21.5 28.2 30.9.8.7 1.6 1.5 2.4 2.2 6.7 6 13.7 11.7 20.7 16.9.9.7 1.7 1.3 2.6 2 1 .7 2 1.5 3 2.2l3 2.1c2 1.4 3.9 2.8 5.9 4.1l2.7 1.8c1.1.7 2.2 1.5 3.2 2.2.9.6 1.9 1.2 2.8 1.8 1 .6 1.9 1.2 2.9 1.8.5.3 1 .7 1.6 1 .9.6 1.9 1.2 2.8 1.8s1.9 1.2 2.8 1.7 1.8 1.1 2.8 1.7c.8.5 1.6.9 2.3 1.4 1.1.7 2.2 1.3 3.3 1.9.7.4 1.5.8 2.2 1.3 1.2.7 2.3 1.3 3.4 1.9.6.3 1.1.6 1.7.9 8 4.4 15.3 8.2 21.4 11.2l1.5.7c5.1 2.5 9.4 4.4 12.6 5.8.3.2.7.3 1 .4 2.9 1.4 4.7 2.1 5.1 2.3zm412.5 224.2c-.7 1.2-.3 2.7.9 3.4 21.1 12.7 42 31.7 63.8 52.4v-.1c.3.2 5.9 2.8 12.7 5.3-25.4-24.4-49.4-47.2-73.9-61.9-1.3-.7-2.8-.3-3.5.9zm-16.5 26.2c-1.1-.7-2.7-.4-3.4.7-.8 1.1-.5 2.7.7 3.5.1.1 9.8 6.4 20 15.1 2.6 1.6 9.6 6 18.4 11.1-13.3-15.7-34.8-29.8-35.7-30.4zm46.7-92c-7.7-3.5-26-11.7-45.8-20.5-3.5.3-7.1.6-10.7.7 21.2 9.3 41.8 18.9 51.9 23.4 1.5-1.1 3.2-2.4 4.6-3.6zm-26.3 32.7c-1.3-.5-2.7.2-3.2 1.5s.2 2.7 1.5 3.2c.2.1 20.2 7.8 44.9 23.6-9-8-15.8-13.4-20.7-17.8-13.3-6.9-22.2-10.4-22.5-10.5.1.1.1 0 0 0zM666.8 684c.3 0-61.1 1-61.4 1h-.1c-1.4 0-2.5-1.1-2.5-2.5s1.1-2.5 2.5-2.5c.3 0 32-.9 67.1-1z" fill="#9b3c82"/></svg></g><g transform="translate(1136.0 37.0) rotate(-40.81166064530464 -164.5 497.0) translate(-0.0 0.0) scale(-0.4294231893743213 0.429675072275324)"><svg width="766.144" height="868.098" viewBox="0 0 766.144 868.098"><path d="M579.644 113.586v150.29q-6.135-10.35-12.5-19.661c-95.39-139.719-228.86-109.569-349.5-47.339C106 254.465 27.454 224.976 2.1 212.026a3.873 3.873 0 0 1 .91-7.22c129.09-29.79 133.671-72.111 257.63-160.93 120.231-86.15 230.59-33.391 306.5 54.53q6.424 7.44 12.504 15.18z" fill="#f94f46"/><g fill="#ffcf2d"><path d="M579.644 113.586v150.29q-6.135-10.35-12.5-19.661V98.406q6.42 7.44 12.5 15.18z"/><path d="M766.144 2300.876a12.5 12.5 0 0 1-12.5 12.5h-348a12.5 12.5 0 0 1 0-25h161.5V244.215q6.375 9.315 12.5 19.661v-150.29q-6.075-7.742-12.5-15.18v-72.53a12.5 12.5 0 1 1 25 0v2262.5h161.5a12.5 12.5 0 0 1 12.5 12.5z"/></g></svg></g><g transform="translate(738.0 571.0) rotate(-40.81166064530464 -164.5 -497.0) translate(-243.30882020834676 -0.6229655437379051) scale(-0.4294231893743213 -0.429675072275324)"><svg width="199.549" height="62.838" viewBox="566.595 1.45 199.549 62.838"><path d="M579.644 113.586v150.29q-6.135-10.35-12.5-19.661c-95.39-139.719-228.86-109.569-349.5-47.339C106 254.465 27.454 224.976 2.1 212.026a3.873 3.873 0 0 1 .91-7.22c129.09-29.79 133.671-72.111 257.63-160.93 120.231-86.15 230.59-33.391 306.5 54.53q6.424 7.44 12.504 15.18z" fill="#f94f46"/><g fill="#ffcf2d"><path d="M579.644 113.586v150.29q-6.135-10.35-12.5-19.661V98.406q6.42 7.44 12.5 15.18z"/><path d="M766.144 2300.876a12.5 12.5 0 0 1-12.5 12.5h-348a12.5 12.5 0 0 1 0-25h161.5V244.215q6.375 9.315 12.5 19.661v-150.29q-6.075-7.742-12.5-15.18v-72.53a12.5 12.5 0 1 1 25 0v2262.5h161.5a12.5 12.5 0 0 1 12.5 12.5z"/></g></svg></g><g transform="translate(527.0 55.0) rotate(-131.46179420475622 45.5 96.0) scale(0.7297748123436197 0.7330034817665384)"><svg width="124.696" height="261.936" viewBox="0 0 124.696 261.936"><g fill="#3FB1B5"><path d="M34.657 148.932A2.5 2.5 0 0 1 34.1 144l78.207-18.08a2.5 2.5 0 1 1 1.126 4.871l-78.207 18.08a2.5 2.5 0 0 1-.569.061zM2.5 61.76a2.5 2.5 0 0 1-1.768-4.268L57.492.733a2.5 2.5 0 1 1 3.535 3.535L4.267 61.027a2.485 2.485 0 0 1-1.767.733zm119.7 200.177a2.535 2.535 0 0 1-.652-.086l-77.5-20.893a2.5 2.5 0 0 1 1.3-4.829l77.5 20.894a2.5 2.5 0 0 1-.65 4.914z"/></g></svg></g><g transform="translate(718.0 375.0) rotate(0.0 19.5 24.0) scale(0.37032113489184726 0.36073680492405735)"><svg width="105.314" height="133.061" viewBox="0 0 105.314 133.061"><path d="M0 81.612c133.86-137.12 102-60 102-60l-.518 1.254C91.073 43.374 85.526 62.734 80.139 81.534c-4.755 16.6-9.672 33.756-17.907 51.527" fill="#f4ada2"/></svg></g></svg>