<svg xmlns="http://www.w3.org/2000/svg" xmlns:xlink="http://www.w3.org/1999/xlink" viewBox="0 0 1500 1500" width="1500" height="1500"><defs><clipPath id="a"><path d="M0 0h706.453v600H0z"/></clipPath></defs><g clip-path="url(#a)" transform="translate(102.0 138.0) rotate(0.0 648.0 552.0) scale(1.8345169459256314 1.84) translate(-0.0 -0.0)"><defs><linearGradient id="b" x1="-7449.073" y1="608.337" x2="-7674.061" y2="332.215" gradientTransform="translate(-7090.219 914) rotate(180)" gradientUnits="userSpaceOnUse"><stop offset="0" stop-color="#c0ddfc"/><stop offset=".186" stop-color="#d3e7fd"/><stop offset=".488" stop-color="#ebf4fe"/><stop offset=".766" stop-color="#fafcff"/><stop offset=".996" stop-color="#fff"/></linearGradient><linearGradient id="c" x1="-7462.797" y1="584.482" x2="-7687.785" y2="308.36" xlink:href="#b"/><linearGradient id="d" x1="-13956.415" y1="385.439" x2="-13956.415" y2="316.873" gradientTransform="translate(-13327.581 914) rotate(180)" gradientUnits="userSpaceOnUse"><stop offset="0" stop-color="#ffd8a1"/><stop offset=".996" stop-color="#fff"/></linearGradient></defs><g data-name="Layer 2"><g data-name="Layer 1"><g opacity=".3" fill="#c4ecfe"><path d="M704.01 2.3v595.41H2.3V2.3h701.71m2.295-2.3H0v600h706.305V0Z"/><path d="M0 425.367h706.305v2.147H0zm0-85.947h706.305v2.147H0z"/><path d="M0 425.367h706.305v2.147H0zm0 85.873h706.305v2.147H0zm0-257.693h706.305v2.147H0zM0 167.6h706.305v2.147H0zm0-85.873h706.305v2.147H0z"/></g><circle cx="33.979" cy="276.422" r="3.035" fill="#bfd9ff"/><circle cx="422.554" cy="480.666" r="3.035" fill="#bfd9ff"/><circle cx="675.139" cy="54.041" r="3.035" fill="#bfd9ff"/><circle cx="346.379" cy="32.943" r="3.035" fill="#bfd9ff"/><circle cx="50.561" cy="61.962" r="3.035" fill="#bfd9ff"/><circle cx="507.168" cy="196.175" r="2.813" fill="#bfd9ff"/><path d="M664.479 255.472a4.108 4.108 0 0 1-4.072-4.072V138.581a4.072 4.072 0 0 1 8.143 0V251.4a4.107 4.107 0 0 1-4.071 4.072Z" fill="#dbecfd"/><path d="M664.479 169.007a4.05 4.05 0 0 1-4-3.406 13.191 13.191 0 0 0-14.139-11.03 4.082 4.082 0 1 1-.592-8.143 21.236 21.236 0 0 1 22.726 17.841 4.036 4.036 0 0 1-3.331 4.664 2.049 2.049 0 0 1-.664.074Z" fill="#dbecfd"/><path d="M664.479 169.007a2.058 2.058 0 0 1-.667-.074 4.036 4.036 0 0 1-3.331-4.664 21.394 21.394 0 0 1 22.727-17.841 4.082 4.082 0 0 1-.592 8.143 13.288 13.288 0 0 0-14.14 11.03 4.05 4.05 0 0 1-3.997 3.406Zm0 20.432a4.05 4.05 0 0 1-4-3.406A13.191 13.191 0 0 0 646.342 175a4.082 4.082 0 1 1-.592-8.143 21.236 21.236 0 0 1 22.726 17.843 4.036 4.036 0 0 1-3.331 4.664 2.049 2.049 0 0 1-.666.075Z" fill="#dbecfd"/><path d="M664.479 189.439a2.058 2.058 0 0 1-.667-.074 4.037 4.037 0 0 1-3.331-4.664 21.394 21.394 0 0 1 22.727-17.841 4.082 4.082 0 0 1-.592 8.143 13.288 13.288 0 0 0-14.14 11.03 4.05 4.05 0 0 1-3.997 3.406Zm-77.952 122.443a4.108 4.108 0 0 1-4.072-4.072V194.991a4.072 4.072 0 1 1 8.143 0V307.81a4.107 4.107 0 0 1-4.071 4.072Z" fill="#dbecfd"/><path d="M586.527 225.416a4.049 4.049 0 0 1-4-3.405 13.19 13.19 0 0 0-14.139-11.03 4.082 4.082 0 1 1-.592-8.143 21.235 21.235 0 0 1 22.726 17.841 4.034 4.034 0 0 1-3.331 4.663 2.049 2.049 0 0 1-.664.074Z" fill="#dbecfd"/><path d="M586.527 225.416a2.049 2.049 0 0 1-.666-.074 4.036 4.036 0 0 1-3.332-4.663 21.392 21.392 0 0 1 22.727-17.841 4.082 4.082 0 0 1-.592 8.143 13.288 13.288 0 0 0-14.14 11.03 4.048 4.048 0 0 1-3.997 3.405Zm0 20.432a4.049 4.049 0 0 1-4-3.405 13.19 13.19 0 0 0-14.139-11.03 4.082 4.082 0 1 1-.592-8.143 21.235 21.235 0 0 1 22.726 17.84 4.035 4.035 0 0 1-3.331 4.664 2.049 2.049 0 0 1-.664.074Z" fill="#dbecfd"/><path d="M586.527 245.848a2.049 2.049 0 0 1-.666-.074 4.036 4.036 0 0 1-3.332-4.664 21.392 21.392 0 0 1 22.727-17.84 4.082 4.082 0 0 1-.592 8.143 13.287 13.287 0 0 0-14.14 11.03 4.048 4.048 0 0 1-3.997 3.405Z" fill="#dbecfd"/><path d="M194.028 576.089C270.352 571.5 295.3 474.078 339.79 435.657s140.654-10.957 161.53-115.78c13.917-70.031 76.471-73.14 128.661-98.9 28.427-14.066 62.7 5.108 62.7 35.163v319.875H194.028Z" opacity=".12" fill="url(#b)" style="isolation:isolate"/><path d="M207.8 600c76.323-4.59 101.27-102.011 145.762-140.432s140.653-10.956 161.529-115.78c13.918-70.031 76.472-73.14 128.662-98.9 28.427-14.066 62.7 5.108 62.7 35.163v319.875L207.8 600Z" fill="url(#c)"/><path d="M551.289 600c34.275 0 49.97-50.265 90.389-45.453 12.141 1.48 25.688-23.393 31.166-32.721 9.179-15.546 33.535-9.254 33.535 8.661V600Z" fill="url(#d)"/><path d="M554.769 126.144v-7.4c18.951 0 39.827-32.277 58.186-60.7 18.655-28.951 34.793-53.898 51.524-53.898v7.4c-12.659 0-29.242 25.688-45.306 50.488-20.357 31.538-41.381 64.11-64.404 64.11ZM46.564 138.507c-12.659-2.3-17.4-16.952-21.913-31.092C18.507 88.464 13.547 76.1 0 76.1v-7.4c19.914 0 26.132 19.4 31.684 36.422C35.756 117.779 39.6 129.7 47.9 131.178Z" fill="#f9d5ff"/></g></g></g><defs><clipPath id="e"><path d="M0 0h673.436v457.347H0z"/></clipPath></defs><g clip-path="url(#e)" transform="translate(106.0 395.0) rotate(0.0 618.0 420.5) scale(1.8353637168194155 1.8388663312539495) translate(-0.0 -0.0)"><g data-name="Layer 2"><g data-name="Layer 1"><path d="M571.943 279.087H552.4a22.227 22.227 0 0 0-22.209 22.213h41.678v-22.213Z" fill="#2b2b2b"/><path d="M625.91 413.449a43.9 43.9 0 0 1-43.9 43.9h-20.283c-23.837-.444-23.615-19.913-23.615-43.9 0-23.69.963-43.011 24.43-43.9h19.469a43.9 43.9 0 0 1 43.899 43.9Z" fill="#3e434a"/><path d="M582.011 434.028a20.58 20.58 0 1 1 20.58-20.579 20.631 20.631 0 0 1-20.58 20.579Zm0-40.567A19.988 19.988 0 1 0 602 413.449a20 20 0 0 0-19.989-19.988Z" fill="#ffdda7"/><circle cx="561.727" cy="413.449" r="43.899" fill="#3e434a"/><path d="M561.727 434.917a21.469 21.469 0 1 1 21.473-21.468 21.484 21.484 0 0 1-21.473 21.468Zm0-40.568a19.1 19.1 0 1 0 19.1 19.1 19.145 19.145 0 0 0-19.1-19.1Zm-265.317 19.1a43.9 43.9 0 0 1-43.9 43.9h-20.283c-23.837-.444-23.615-19.913-23.615-43.9 0-23.69.962-43.011 24.429-43.9h19.47a43.9 43.9 0 0 1 43.899 43.9Z" fill="#3e434a"/><path d="M252.437 434.028a20.58 20.58 0 1 1 20.58-20.579 20.63 20.63 0 0 1-20.58 20.579Zm0-40.567a19.988 19.988 0 1 0 19.987 19.988 20 20 0 0 0-19.987-19.988Z" fill="#ffdda7"/><circle cx="232.153" cy="413.449" r="43.899" fill="#3e434a"/><path d="M232.153 434.917a21.469 21.469 0 1 1 21.468-21.468 21.483 21.483 0 0 1-21.468 21.468Zm0-40.568a19.1 19.1 0 1 0 19.1 19.1 19.145 19.145 0 0 0-19.1-19.1Z" fill="#3e434a"/><path d="M662.776 353.337v43.9a15.755 15.755 0 0 1-1.925 7.625 16.106 16.106 0 0 1-14.287 8.513H155.46a20.7 20.7 0 0 1-7.921-1.554 19.638 19.638 0 0 1-6.739-4.521 20.983 20.983 0 0 1-6.07-14.657v-47.967a12.354 12.354 0 0 1 .888-4.59 11.64 11.64 0 0 1 2.517-3.775 12.308 12.308 0 0 0 3.553-8.513v-32.351l60.335-284.269A36.841 36.841 0 0 1 228.526 0h172.782a23.94 23.94 0 0 1 21.764 14.806l119.852 279.309 78.766 11.622a47.855 47.855 0 0 1 14.584 4.59 48.867 48.867 0 0 1 12.363 8.957 40.5 40.5 0 0 1 3.331 3.776 49.148 49.148 0 0 1 10.808 30.277Z" fill="#fcd850"/><path fill="#fff" d="m340.308 15.546 104.38 278.791h98.384L423.886 15.546h-83.578z"/><path d="M164.491 324.688h-23.023v-29.019h.3a22.876 22.876 0 0 1 22.723 22.731Zm-22.431-.588h21.84v-5.7a22.281 22.281 0 0 0-21.839-22.134Z" fill="#ffdda7"/><path fill="#3e434a" d="M45.527 351.857h465.787v61.592H45.527z"/><path d="M176.854 413.449a43.9 43.9 0 0 1-43.9 43.9h-20.283c-23.837-.444-23.615-19.913-23.615-43.9 0-23.69.963-43.011 24.43-43.9h19.469a43.9 43.9 0 0 1 43.899 43.9Z" fill="#3e434a"/><path d="M132.955 434.028a20.58 20.58 0 1 1 20.58-20.579 20.631 20.631 0 0 1-20.58 20.579Zm0-40.567a19.988 19.988 0 1 0 19.988 19.988 20 20 0 0 0-19.988-19.988Z" fill="#ffdda7"/><circle cx="112.671" cy="413.449" r="43.899" fill="#95989c"/><path d="M112.6 434.917a21.139 21.139 0 0 1-13.547-4.886 21.465 21.465 0 0 1 11.474-37.977 21.077 21.077 0 0 1 15.694 4.738 21.478 21.478 0 0 1 7.773 14.51 21.074 21.074 0 0 1-4.74 15.698 21.783 21.783 0 0 1-14.51 7.773 19.567 19.567 0 0 1-2.144.144Zm-1.777-40.494a19.095 19.095 0 0 0-10.215 33.757 18.734 18.734 0 0 0 13.992 4.22 19.071 19.071 0 0 0 12.881-6.885 18.729 18.729 0 0 0 4.219-13.991 19.073 19.073 0 0 0-6.884-12.881 18.832 18.832 0 0 0-13.992-4.22Zm395.531 19.026a43.9 43.9 0 0 1-43.9 43.9h-20.282c-23.838-.444-23.616-19.913-23.616-43.9 0-23.69.963-43.011 24.43-43.9h19.469a43.851 43.851 0 0 1 43.899 43.9Z" fill="#3e434a"/><path d="M462.455 434.028a20.58 20.58 0 1 1 20.58-20.579 20.631 20.631 0 0 1-20.58 20.579Zm0-40.567a19.988 19.988 0 1 0 19.988 19.988 20 20 0 0 0-19.988-19.988Z" fill="#ffdda7"/><circle cx="442.172" cy="413.449" r="43.899" fill="#95989c"/><path d="M442.172 434.917a21.469 21.469 0 1 1 21.468-21.468 21.484 21.484 0 0 1-21.468 21.468Zm0-40.568a19.1 19.1 0 1 0 19.1 19.1 19.146 19.146 0 0 0-19.1-19.1Z" fill="#3e434a"/><path d="M540.629 397.236v-43.973a48.021 48.021 0 0 0-14.065-33.979 47.953 47.953 0 0 0-26.946-13.547l-78.767-11.622L296.706 4.516A36.7 36.7 0 0 0 279.087 0H105.194C91.5.444 80.1 10.512 77.212 23.837l-57.594 271.61V327.8a11.931 11.931 0 0 1-3.48 8.439 11.93 11.93 0 0 0-3.479 8.439v48.045a20.988 20.988 0 0 0 6.07 14.657 20.674 20.674 0 0 0 14.658 6.071h26.206v-.519a56.283 56.283 0 0 1 56.261-56.261 56.284 56.284 0 0 1 56.262 56.261v.519h216.237v-2.517a54.246 54.246 0 0 1 54.263-54.263 54.246 54.246 0 0 1 54.262 54.263v2.517h27.761a16.7 16.7 0 0 0 8.958-2.665 16.661 16.661 0 0 0 7.032-13.55Z" fill="#fcd850"/><path d="M72.178 355.854a12.881 12.881 0 1 1 12.881-12.881 12.89 12.89 0 0 1-12.881 12.881Zm0-23.393a10.513 10.513 0 1 0 10.512 10.512 10.552 10.552 0 0 0-10.512-10.512Z" fill="#f1742e"/><path d="m77.878 21.172-56.41 265.466s40.272-3.85 56.632-24.059Z" fill="#fff"/><path d="M11.474 403.307h3.776a11.484 11.484 0 0 0 11.474-11.475v-15.25a11.484 11.484 0 0 0-11.474-11.474h-3.776A11.484 11.484 0 0 0 0 376.582v15.25a11.484 11.484 0 0 0 11.474 11.475Z" fill="#95989c"/><path d="M19.618 295.965v28.427h16.73V312.7a16.713 16.713 0 0 0-16.73-16.735Z" fill="#f1742e"/><path d="M659.445 424.109H517.384a14.028 14.028 0 0 1-13.991-13.992 14.027 14.027 0 0 1 13.991-13.991h142.061a14.027 14.027 0 0 1 13.991 13.991 13.98 13.98 0 0 1-13.991 13.992Z" fill="#95989c"/><path d="M405.75 301.221 290.857 15.546H127.625a12.89 12.89 0 0 0-12.881 12.881v239.556a12.9 12.9 0 0 0 10.956 12.733l22.357 3.257 110.672-4.886Z" fill="#fff"/><path fill="#fcd850" d="m244.516 15.546 19.691 285.675v112.228h88.686l52.412-112.228-115.78-285.675h-45.009z"/><path fill="#f1742e" d="M282.418 320.765h23.615v7.107h-23.615z"/><path fill="#fff" d="M264.207 301.221 244.516 15.546h54.855l107.711 285.675H264.207z"/><path d="M366.737 279.087h19.543a22.227 22.227 0 0 1 22.209 22.213h-41.678v-22.213Z" fill="#f1932e"/><ellipse cx="499.496" cy="311.858" rx="2.073" ry="3.701" transform="translate(36.04 675.122) rotate(-70.068)" fill="#ffeaa1"/><path fill="#fcd850" d="M245.848 15.546h-97.791v307.588l50.117 90.315h67.44V301.221L245.848 15.546"/><path fill="#fff" d="M148.057 15.546h97.791l19.766 285.675-117.557-17.248V15.546z"/><path fill="#f1742e" d="M166.638 320.765h23.615v7.107h-23.615z"/><path d="M543.072 295.447a1.116 1.116 0 0 1-1.036-.666L422.85 15.99a1.128 1.128 0 0 1 2.073-.888l119.186 278.791a1.14 1.14 0 0 1-.593 1.48.939.939 0 0 1-.444.074Zm-521.678-7.699h-.222a1.217 1.217 0 0 1-.888-1.332L76.767 20.95a1.132 1.132 0 0 1 2.221.444L22.505 286.86a1.18 1.18 0 0 1-1.111.888Zm244.22 126.811a1.139 1.139 0 0 1-1.111-1.11V301.221a1.111 1.111 0 0 1 2.221 0v112.228a1.138 1.138 0 0 1-1.11 1.11Z" fill="#2b2b2b"/><path d="M265.614 302.332a1.126 1.126 0 0 1-1.114-1.032L244.738 15.62a1.113 1.113 0 0 1 2.221-.148l19.765 285.675a1.137 1.137 0 0 1-1.036 1.185Z" fill="#f9d5ff"/><path d="M198.174 414.559a1.155 1.155 0 0 1-.962-.592l-50.266-90.537v-39.457a1.111 1.111 0 1 1 2.221 0v38.865l49.969 90.092a1.1 1.1 0 0 1-.444 1.481 1.372 1.372 0 0 1-.518.148Z" fill="#2b2b2b"/><path d="M148.057 285.083a1.139 1.139 0 0 1-1.111-1.11V15.546a1.111 1.111 0 0 1 2.221 0v268.427a1.138 1.138 0 0 1-1.11 1.11Z" fill="#f9d5ff"/><circle cx="546.329" cy="357.261" r="18.285" fill="#fff"/><circle cx="639.309" cy="357.261" r="18.285" fill="#fff"/><path d="M577.421 373.7a1.138 1.138 0 0 1-1.11-1.11v-29.617a1.111 1.111 0 0 1 2.221 0v29.612a1.138 1.138 0 0 1-1.111 1.115Zm7.403 0a1.138 1.138 0 0 1-1.11-1.11v-29.617a1.111 1.111 0 0 1 2.221 0v29.612a1.139 1.139 0 0 1-1.111 1.115Zm7.403 0a1.138 1.138 0 0 1-1.11-1.11v-29.617a1.11 1.11 0 1 1 2.22 0v29.612a1.138 1.138 0 0 1-1.11 1.115Zm7.403 0a1.139 1.139 0 0 1-1.111-1.11v-29.617a1.111 1.111 0 0 1 2.221 0v29.612a1.138 1.138 0 0 1-1.11 1.115Zm7.403 0a1.138 1.138 0 0 1-1.111-1.11v-29.617a1.111 1.111 0 0 1 2.221 0v29.612a1.138 1.138 0 0 1-1.11 1.115Z" fill="#2b2b2b"/></g></g></g><defs><clipPath id="f"><path d="M0 0h298.334v3.035H0z"/></clipPath></defs><g clip-path="url(#f)" transform="translate(139.0 1233.0) rotate(0.0 260.5 2.5) scale(1.7463648125925975 1.6474464579901154) translate(-0.0 -0.0)"><g data-name="Layer 2"><path fill="#2b2b2b" d="M0 0h298.334v3.035H0z" data-name="Layer 1"/></g></g><defs><clipPath id="g"><path d="M0 0h298.334v3.035H0z"/></clipPath></defs><g clip-path="url(#g)" transform="translate(655.0 1233.0) rotate(0.0 263.5 2.5) scale(1.7664764994938558 1.6474464579901154) translate(-0.0 -0.0)"><g data-name="Layer 2"><path fill="#2b2b2b" d="M0 0h298.334v3.035H0z" data-name="Layer 1"/></g></g><defs><clipPath id="h"><path d="M0 0h241.999v135.879H0z"/></clipPath></defs><g clip-path="url(#h)" transform="translate(1401.0 1081.0) rotate(0.0 -143.5 80.5) scale(-1.1859553138649332 1.184877722090978) translate(-0.0 -0.0)"><defs><linearGradient id="i" x1="-16018.079" y1="132.378" x2="-16018.079" y2="239.412" gradientTransform="translate(16139.078 -108)" gradientUnits="userSpaceOnUse"><stop offset="0" stop-color="#ffd8a1"/><stop offset=".996" stop-color="#fff"/></linearGradient></defs><g data-name="Layer 2"><path d="M242 135.879c-53.523 0-77.952-78.544-141.024-70.919-18.952 2.3-40.05-36.5-48.637-51.154C37.977-10.475 0-.7 0 27.354v108.451l242 .074Z" fill="url(#i)" data-name="Layer 1"/></g></g><defs><clipPath id="j"><path d="M0 0h102.529v422.258H0z"/></clipPath></defs><g clip-path="url(#j)" transform="translate(554.0 389.0) rotate(0.0 94.0 385.0) scale(1.8336275590320787 1.823529690378868) translate(-0.0 -0.0)"><path fill="#F9D5FF" d="M61.37 307.514H19.692L0 21.838h48.711c-1.258 19.692-16.73 30.426-16.582 37.31.148 7.403 2.369 12.955 2.369 12.955l-.074.074c6.366 13.399 24.355 138.951 27.539 173.449.961 10.808.517 34.423-.593 61.888z"/><path fill="#2B2B2B" d="M21.098 420.851c-.592 0-1.11-.518-1.11-1.11V307.514c0-.592.518-1.11 1.11-1.11s1.11.518 1.11 1.11v112.227c0 .592-.518 1.11-1.11 1.11z"/><path fill="#F9D5FF" d="M21.098 308.624c-.592 0-1.036-.444-1.11-1.036L.222 21.912c-.074-.592.444-1.11 1.036-1.184.592-.074 1.11.444 1.184 1.036L22.208 307.44c.074.592-.444 1.11-1.036 1.184h-.074z"/><path fill="#2B2B2B" d="M54.855 21.838 102.529 0 21.098 6.292v15.546zM51.82 307.514l-7.773 114.744H7.921l16.064-114.744zM15.768 27.613c-.592 0-1.11-.444-1.11-1.11V12.659c0-.592.444-1.11 1.11-1.11.666 0 1.11.444 1.11 1.11v13.843a1.09 1.09 0 0 1-1.11 1.111z"/></g><defs><clipPath id="k"><path d="M0 0h35v35H0z"/></clipPath></defs><g clip-path="url(#k)" transform="translate(447.0 442.0) rotate(0.0 66.5 66.5) scale(3.8 3.8) translate(-0.0 -0.0)"><g data-name="Layer 2"><path fill="#f9d5ff" d="M0 0h35v35H0z" data-name="Layer 1"/></g></g><defs><clipPath id="l"><path d="M0 0h61.518v91.055H0z"/></clipPath></defs><g clip-path="url(#l)" transform="translate(338.0 915.0) rotate(0.0 57.5 84.5) scale(1.8693715660457102 1.8560210861567183) translate(-0.0 -0.0)"><path fill="#FFDDA7" d="M37.754 41.456H14.732V12.437h.296c12.437 0 22.653 10.216 22.727 22.727v6.292zm-22.43-.592h21.838v-5.7c-.074-12.067-9.846-21.986-21.838-22.135v27.835z"/><path fill="#2B2B2B" d="M29.833 91.055 61.518 6.663 17.767 0 0 74.547s17.471 3.183 29.833 16.508z"/></g><defs><clipPath id="m"><path d="M0 0h360.454v596.595H0z"/></clipPath></defs><g clip-path="url(#m)" transform="translate(118.0 144.0) rotate(0.0 330.0 547.0) scale(1.8310242083594577 1.8337398067365633) translate(-0.0 -0.0)"><defs><linearGradient id="n" x1="194.458" y1="704.125" x2="194.458" y2="348.443" gradientTransform="matrix(1, 0, 0, -1, 0, 909.262)" gradientUnits="userSpaceOnUse"><stop offset="0" stop-color="#d96359"/><stop offset=".322" stop-color="#90979d"/><stop offset=".501" stop-color="#7e9dae"/><stop offset=".683" stop-color="#b8c1fc"/><stop offset="1" stop-color="#d2d4d4"/></linearGradient><linearGradient id="o" x1="112.577" y1="815.608" x2="112.577" y2="435.806" gradientTransform="matrix(1, 0.013, 0.013, -1, 95.768, 1018.602)" xlink:href="#n"/><linearGradient id="p" x1="-13424.437" y1="638.154" x2="-13424.437" y2="256.251" gradientTransform="translate(-13280.113 1018.602) rotate(179.255)" xlink:href="#n"/></defs><g data-name="Layer 2"><g data-name="Layer 1"><path d="M334.151 83.874H321.2a148.968 148.968 0 0 0-35.237 4.22L210.746 106.6a31.7 31.7 0 1 0 16.508 61.221l73.955-30.277 34.571-.889a26.359 26.359 0 0 0 24.651-27.39 26.3 26.3 0 0 0-26.28-25.391Z" fill="#86c0f2"/><path d="m99.7 323.726-15.246 22.727a22.927 22.927 0 0 1-40.124-21.765l11.327-26.724" fill="#fdc068"/><path d="m55.583 298.038 83.948-165.3c9.253-14.806 33.535-21.172 48.34-11.919a31.665 31.665 0 0 1 9.994 43.677L99.7 323.726Z" fill="#86c0f2"/><circle cx="158.852" cy="46.934" r="12.511" fill="#fdc068"/><path d="M148.562 204.614c-7.7 22.357 3.554 52.857 28.8 51.82 19.4-.814 20.8-.074 29.019-.444 25.91-1.11 42.641-28.205 34.127-52.708Z" fill="url(#n)"/><path d="M238.062 190.327a40.648 40.648 0 0 0 2.369 12.955l-91.869 1.332c7.551-21.912-13.843-19.987-16.064-50.709v-.444a10.943 10.943 0 0 1-.074-1.555h.074c.592-15.472 15.176-34.719 35.608-40.937a46.844 46.844 0 0 1 12.214-2.069l24.282-1.629a48.986 48.986 0 0 1 14.213 1.555c21.912 5.626 35.312 25.465 35.9 39.9 1.04 22.428-16.801 34.124-16.653 41.601Z" fill="#86c0f2"/><path fill="#2b2b2b" d="M193.349 126.44h2.147v77.508h-2.147z"/><path d="M219.185 113.263a25.614 25.614 0 1 1-51.227 0c0-.814 0-1.554.074-2.369a46.885 46.885 0 0 1 12.214-2.072l24.282-1.629a48.986 48.986 0 0 1 14.213 1.555 17.993 17.993 0 0 1 .444 4.515Z" fill="#fff"/><circle cx="224.737" cy="46.934" r="12.511" fill="#fdc068"/><path d="m207.045 126.44 30.2-26.428s-17.619 5.108-32.646 7.181Z" fill="#2b2b2b"/><path d="m173.88 111.635.518-58.779 35.386-1.256 3.923 58.63a19.158 19.158 0 0 1-18.8 20.728h-1.555a19 19 0 0 1-19.472-19.323Z" fill="#fdc068"/><path fill="#2b2b2b" d="m180.839 85.133 32.276 16.138-1.555-22.209-30.721 6.071z"/><path d="M192.757 87.576a30.527 30.527 0 0 1-30.277-27.243l-2.888-27.02A33.3 33.3 0 0 1 192.905.074a33.3 33.3 0 0 1 33.239 33.313l-2.961 27.02a30.662 30.662 0 0 1-30.426 27.169Z" fill="#fdc068"/><path d="M148.636 205.725h-.222a1.03 1.03 0 0 1-.814-1.259c2.221-10.586 1.258-16.36-3.628-20.58a1.048 1.048 0 1 1 1.407-1.554c6.811 5.922 6.07 14.361 4.368 22.653a1.251 1.251 0 0 1-1.111.74Z" fill="#2b2b2b"/><path d="M240.431 203.208c6.367 13.177 24.356 138.951 27.539 173.522s-8.587 198.841-8.365 202.542l-53.079-1.258s-15.62-208.909-17.618-223.122l-22.357-127.773Z" fill="url(#o)"/><path d="M282.035 596.6h-67.143a8.059 8.059 0 0 1-8.07-7.921l-.222-10.66 53.079.518 23.393 9.92c4.664 1.179 3.849 8.143-1.037 8.143Z" fill="#2b2b2b"/><path d="M148.562 204.614c-6.366 13.177-33.535 117.409-43.306 150.648S43.442 574.608 43.146 578.31l51.6 4.812s75.508-196.768 82.763-209.131l53.819-148.056Z" fill="url(#p)"/><path d="M4.133 596.6h84.022a8.057 8.057 0 0 0 8.069-7.921l.222-10.66-53.078.518L3.1 588.452c-4.667 1.184-3.853 8.148 1.033 8.148Z" fill="#2b2b2b"/><circle cx="177.507" cy="40.938" r="3.331" fill="#2b2b2b"/><circle cx="206.378" cy="40.938" r="3.479" fill="#2b2b2b"/><path d="M191.869 53.523a.9.9 0 0 1-.889-.523 1.13 1.13 0 0 1 .3-1.48l2.961-1.851a1.6 1.6 0 0 0 .148-2.147 12.621 12.621 0 0 1-3.258-8.365V38.2a1.091 1.091 0 0 1 1.111-1.111 1.049 1.049 0 0 1 1.11 1.111v.962a10.471 10.471 0 0 0 2.665 6.959 3.619 3.619 0 0 1 .889 2.739 3.765 3.765 0 0 1-1.259 2.517l-.148.074-3.035 1.924a1.744 1.744 0 0 1-.595.148Zm28.353.518-5.33 6.218a5.068 5.068 0 0 1-7.847-.148L204.6 57a7.472 7.472 0 0 0-6-2.887h-12.14a7.806 7.806 0 0 0-6 2.887l-2.294 3.109a5.07 5.07 0 0 1-7.848.148L165 54.041h-3.109v8.809a27.219 27.219 0 0 0 27.239 27.243h6.958a27.219 27.219 0 0 0 27.243-27.243v-8.809Z" fill="#2b2b2b"/><path d="M187.5 62.258c.814 8.439 10.216 6.144 10.216 0Z" fill="#fff"/><path d="M161.887 54.041H165V27.02a12.24 12.24 0 0 1 15.25-11.77l8.217 2.073a12.677 12.677 0 0 0 6.441-.074l9.179-2.591a12.142 12.142 0 0 1 15.546 10.956l1.037 28.427H224l2.073-16.287A33.267 33.267 0 0 0 192.979 0a33.268 33.268 0 0 0-33.165 37.162Z" fill="#2b2b2b"/><circle cx="298.099" cy="111.857" r="25.54" fill="#fff"/><path d="M295.879 132.511h-3.406a20.663 20.663 0 0 1-20.654-20.654A20.662 20.662 0 0 1 292.473 91.2h3.406a20.662 20.662 0 0 1 20.654 20.654 20.663 20.663 0 0 1-20.654 20.657Z" fill="#fdc068"/><path fill="#fff" d="M148.562 203.208h92.017l2.739 9.846h-97.717l2.961-9.846z"/><path d="M254.127 158.717a1.09 1.09 0 0 1-1.111-1.111v-13.843a1.09 1.09 0 0 1 1.111-1.11 1.049 1.049 0 0 1 1.11 1.11v13.843a1.09 1.09 0 0 1-1.11 1.111Z" fill="#2b2b2b"/><path fill="#fff" d="m99.703 323.726-44.12-25.688 4.145-8.143 44.565 26.354-4.59 7.477z"/><path fill="#2b2b2b" d="m186.445 346.27 18.184-56.901 2.046.653-18.185 56.901zm6.472 57.886 1.584-1.45 7.197 7.864-1.584 1.45z"/></g></g></g></svg>