<svg xmlns="http://www.w3.org/2000/svg" viewBox="0 0 3000 3000" width="3000" height="3000"><g transform="translate(951.0 560.0) rotate(0.0 777.0 569.0) scale(1.6096104307727683 1.6082418863631545)"><svg width="965.451" height="707.605" viewBox="0 0 965.451 707.605"><path d="M10 10h945.451v687.605H10z" fill="#2e3646"/><path d="M965.451 707.605H0V0h965.451zM20 687.605h925.451V20H20z" fill="#d3d6d6"/><g fill="#00d46f"><path d="M99.389 369.267h661.942v13.304H99.389zm0 44.562h767.47v13.304H99.389zm0 45.367h462.937V472.5H99.389zm0 45.114H276.95v13.304H99.389zm0 45.438h288.443v13.304H99.389zm0 45.357h438.426v13.304H99.389z"/></g><path d="M99.389 97.911h294.576v13.304H99.389zm0 45.357h305.036v13.304H99.389z" fill="#1fbfcb"/><path d="M98.592 188.928H325.24v13.304H98.592z" fill="#25bdca"/><path d="M99.389 233.499h338.69v13.304H99.389zm-.797 45.599H447.64v13.304H98.592z" fill="#33759d"/><path d="M99.389 324.051H527.26v13.304H99.389z" fill="#32749c"/><path d="M402.274 97.911H559.07v13.304H402.274z" fill="#24c1ce"/><path d="M412.476 143.268h323.197v13.304H412.476z" fill="#33759d"/><path d="M334.078 202.232v-13.304h156.796v13.304" fill="#25bdca"/><path d="M456.075 279.098h321.492v13.304H456.075z" fill="#33759d"/><path d="M535.357 324.051h156.796v13.304H535.357z" fill="#32749c"/></svg></g><g transform="translate(213.0 1123.0) rotate(0.0 715.5 666.0) scale(0.999680046498046 0.999729052411471)"><svg width="1431.458" height="1332.361" viewBox="0 0 1431.458 1332.361"><linearGradient id="a" gradientUnits="userSpaceOnUse" x1="710.597" x2="810.373" y1="378.834" y2="378.834"><stop offset=".382" stop-color="#f69379"/><stop offset=".994" stop-color="#fab697"/></linearGradient><linearGradient id="b" gradientTransform="matrix(-.912 .119 -.133 -.971 -6579.276 8464.295)" gradientUnits="userSpaceOnUse" x1="-9346.158" x2="-9280.708" y1="7199.545" y2="7199.545"><stop offset=".197" stop-color="#fab697"/><stop offset=".724" stop-color="#f69379"/></linearGradient><path d="M1286.353 1224.09a246.618 246.618 0 0 0-39.611 3.122l-1.934-12.754s-63.853-435.579-149.831-494.341c-45.721-31.248-173.111-54.83-325.4-64.824-141.114-9.261-278.089-7.524-300.565 1.157C389.218 665.711 25.407 1001.2.376 1207.456c-6.743 55.564 77.544 78.715 223.64 79.873 705.1 21.742 901.811 31.636 942.532 33.722 9.633 1.167 109.356 5.533 119.805 6 69.251 3.107 115.246-23.048 115.246-51.481s-51.599-51.48-115.246-51.48z" fill="#e3e0d6"/><g fill="#f3f1e9"><path d="M44.59 1124.4c-14.735 0-17.5-1.272-19.117-2.015l5.007-10.9c2.827 1.1 22.625 3.717 157-9.659 74.913-7.456 145.777-15.923 149.349-16.561a6.014 6.014 0 0 0-4.744 6.393l5.926-.525v-6.01l5.622 3.779-1.439 6.577c-1.566 1.49-1.566 1.49-16.118 3.252-8.9 1.078-20.737 2.462-33.318 3.9-19.745 2.25-59.265 6.664-102.1 10.942-86.219 8.604-126.594 10.827-146.068 10.827z"/><path d="m68.358 1271.884-11.523-3.349c2.164-7.444 12.734-20.205 74.736-58.4 39.493-24.331 89.312-52.446 129.341-75.036 37.493-21.16 76.264-43.04 80.318-47.384a3.907 3.907 0 0 0-.645 1.079l11.061 4.656c-2.027 4.814-13.126 11.63-84.836 52.1-39.941 22.539-89.647 50.591-128.945 74.8-59.95 36.934-68.579 48.343-69.507 51.534zm136.591 15.173-12-.322c.24-8.922 6.572-25.052 53.8-70.967 29.149-28.339 64.72-59.09 90.693-81.544 16.85-14.566 32.765-28.325 34.778-31.12a2.543 2.543 0 0 0-.22.381l10.732 5.366c-1.663 3.328-8.58 9.5-37.442 34.451-25.861 22.357-61.278 52.975-90.177 81.07-43.313 42.113-50.02 57.351-50.164 62.685zm94.324 2.684-12-.31c.585-22.625 41.564-72.35 59.156-92.679 28.274-32.675 64.605-68.645 82.031-75.347l4.308 11.2c-12.994 5-45.489 35.278-77.265 72-33.31 38.495-55.903 72.711-56.23 85.136zm89.142 2.948-11.992-.457c.862-22.623 17.75-59.772 33.266-86.994 7.688-13.487 34.51-58.256 56.906-68.1l4.828 10.986c-12.455 5.474-32.6 30.225-51.309 63.055-18.614 32.658-31.057 64.652-31.699 81.51zm49.458 1.416-11.992-.408c.972-28.516 26.371-72.18 34.133-84.882a310.266 310.266 0 0 1 25.8-36.629c12.713-15.1 18.72-17.033 22.533-17.033v12a1.65 1.65 0 0 0 .35-.031c-3.918.982-19.561 16.626-39.623 49.9-18.965 31.447-30.628 60.264-31.201 77.083zm51.621 1.717-11.99-.47c1.069-27.293 42.712-102.73 69.36-118.524l6.119 10.323c-23.183 13.739-62.556 84.892-63.489 108.671zm73.06 2.403-11.992-.419c.728-20.829 12.2-44.264 18.974-56.379 10.113-18.088 22.026-33.184 30.349-38.46l6.424 10.136c-13.027 8.257-42.695 54.808-43.755 85.122zm63.925 2.175-11.993-.431c.507-14.091 12.117-57.443 35.257-71.585l6.257 10.237c-18.314 11.193-29.107 50.285-29.521 61.779zm447.36-551.739a7.333 7.333 0 0 1-2.284-.369C797.779 717.916 612.2 710.609 487.637 725.3c-2.7.47-6.79.605-31.493-21.585-3.96-3.557-23.949-21.706-28.589-29.712l10.381-6.018c4.957 8.55 41.444 41.282 49.243 45.286 125.526-14.66 311.8-7.309 585.982 23.123 3.713-2.987 12.412-16.072 15.391-20.553l9.994 6.644c-10.746 16.161-17.788 26.176-24.707 26.176z"/><path d="m1097.511 797.18-3.954-.639c-223.114-36.056-411.365-42.078-610.386-19.529l-1.864.211-1.653-.888c-12.087-6.5-27.485-13.9-42.376-21.055-38.674-18.591-62.649-30.539-69.461-39.695l9.627-7.163c5.539 7.445 38.527 23.3 65.034 36.042 14.344 6.9 29.156 14.015 41.2 20.415 198.27-22.294 386-16.38 607.781 19.17 2.243-3.837 4.636-8.2 6.968-12.455 8.245-15.04 13.555-24.43 18.63-27.833l6.684 9.965c-2.9 1.946-10.344 15.524-14.792 23.636-3.133 5.715-6.372 11.625-9.331 16.411z"/><path d="m1124.627 871.85-5.1-1.177c-197.134-43.46-404.679-43.628-653.161-.526l-4.694.814-1.857-4.387c-10.252-24.226-46.937-43.364-82.415-61.872-26.654-13.9-51.83-27.038-65.317-42.218l8.971-7.97c12.022 13.531 36.248 26.169 61.9 39.549 35.409 18.472 71.961 37.54 85.836 63.489 122.688-21.067 235.548-31.608 342.137-31.608 107.25 0 208.147 10.657 306.514 31.989 5.631-11.648 20.762-40.776 33.126-45.9l4.6 11.084c-8.3 3.442-25.69 36.178-28.729 43.824z"/><path d="m1133.031 934.741-3.744-.6c-233.02-37.067-452.907-37.552-672.228-1.48l-3.527.58-2.189-2.825c-17.869-23.056-59.945-40.855-100.634-58.068-37.851-16.011-76.989-32.567-97.926-54.071l8.6-8.371c19.246 19.768 57.25 35.844 94 51.391 40.553 17.154 82.434 34.87 103.151 58.963a2031.862 2031.862 0 0 1 332.344-26.132c109.575.387 222.774 9.661 336.509 27.564 2.8-4.234 5.827-9.079 9-14.149 14.665-23.453 24.215-37.907 33.151-40.864l3.77 11.393c-5.472 1.81-18.789 23.108-26.746 35.834-4.052 6.48-7.879 12.6-11.383 17.706z"/><path d="m447.518 1016.469-2.074-2.85c-19.032-26.169-73.711-48.886-126.589-70.855-46.788-19.438-95.167-39.538-123.855-63.547l7.7-9.2c27.284 22.833 74.8 42.576 120.758 61.668 55.039 22.867 107.128 44.508 129.509 72.043 251.54-30.143 473.75-32.593 679.078-7.483 16.644-17.419 44.884-45.04 60-48.877l2.953 11.63c-8.889 2.257-30.87 20.844-56 47.351l-2.425 2.544-2.995-.37c-206.106-25.5-429.374-23.033-682.558 7.526z"/><path d="m442.4 1110.713-2.011-1.719c-9.6-8.194-97.073-57.071-167.363-96.344-64.4-35.981-120.012-67.056-129.14-73.859l7.17-9.622c8.5 6.333 66.459 38.719 127.824 73.005 87.712 49.008 151.923 85.083 167.1 96 105.767-13.078 212.741-21.786 317.99-25.884 114.079-4.442 238.049-2.317 368.46 6.32l4.517.3c8.377.549 42.339-10.008 60.578-15.679 10.581-3.289 16.7-5.176 19.369-5.7l2.312 11.776c-2.166.425-9.915 2.834-18.118 5.384-29.714 9.239-55.081 16.834-64.922 16.195l-4.529-.3c-161.915-10.722-289.057-9.346-367.2-6.3-105.721 4.117-213.187 12.9-319.413 26.1zm700.642 68.412h-.177l-.513-.035c-1.264-.143-127.4-14.351-210.241-18.633-83.978-4.34-239.3-4.864-423.392 6.687l-.752-11.976c184.6-11.583 340.454-11.052 424.763-6.695 81.075 4.191 203.23 17.824 210.627 18.654 6.674-.193 71.859-10.413 91.442-13.911l2.109 11.814c-14.777 2.636-85.986 14.095-93.866 14.095zm-30.265 81.118c-23.022 0-50.452-1.141-78.791-2.32-40.464-1.683-82.3-3.423-116.978-2.219l-.416-11.993c35.128-1.22 77.2.53 117.893 2.222 48.663 2.024 94.628 3.936 118.818.141l1.859 11.855c-10.775 1.69-25.379 2.314-42.385 2.314z"/></g><path d="M1131.716 905.624c.368-9.8 10.668 167.186 15.5 244.762l11.127 127.376c10.938-22.29 32.268-30.855 32.268-30.855-16.928 9.082-30.016 35.19-28.47 52.422s2.958 15.027 4.407 21.722l-20.757-.757c-17.091-55.746-15.315-381.668-14.075-414.67zm-669.189-44.862c5.207-2.6-23.307 254.559-13.127 265.085 12.554 12.981 137.433 64.6 223.151 114.6l-12.116 18.521c-105.835-65.482-230.083-129.762-359.465-188.684 44.933 11 138.53 58.3 140.352 53.248 5.122-14.206 2.383-175.618 21.205-262.77z" fill="#b0ab98"/><path d="M1395.554 1269.97c0 20.831-47.508 36.9-106.061 35.184-79.68-2.331-106.061-16.886-106.061-37.717s47.485-37.718 106.061-37.718 106.061 19.42 106.061 40.251z" fill="#b0ab98"/><path d="M914.485 679.023c-.489-20.523-55.564-12.733-62.509-38.2-8.347-30.6.578-89.712.578-89.712l-149.327-31.255c5.444 10.737 6.367 75.822 4.052 111.706s-49.779 21.994-56.722 39.358c-19.729 49.323 265.086 56.721 263.928 8.103z" fill="#fdb291"/><path d="M851.4 639.087s-78.524-8.337-142.964-54.987c-.509-31.73-.665-52.567-5.209-64.246l151.064 30.676c-10.43 37.195-2.891 88.557-2.891 88.557z" fill="#f58f73"/><path d="M549.848 360.69c-9.438 25.618 16.77 70.4 45.146 79.872 20.149 6.727 39.6-2.809 38.2-4.63 9.847 20.061 27.7 60.733 73.684 91.668 20.494 13.786 66.756 44.087 130.339 36.854 12.144-1.381 80.48-19.147 120.1-75.273 55.564-78.715 11.231-162.866 12.733-170.164 8.1-39.358 15.049-69.454-11.575-116.915C893.648 72.453 785.822 93.748 778.34 93.887c-13.163.244-136.912 4.511-177.98 101.574-30.014 70.939 24.587 157.339 15.47 149.023-23.436-21.384-54.746-11.21-65.982 16.206z" fill="#fdb291"/><path d="M849.924 388.926c-5.21-9.138 22.876-41.832 38.652-36.855 4.93 1.555 9.35 7.008 9.888 12.585.732 7.588-5.911 13.459-8.989 16.18-13.105 11.583-35.782 14.7-39.551 8.09z" fill="#f69379"/><path d="M622.519 357.969c49.438-80 140.5-142.592 322.975-179.447-3.632.734-47.258-113.344-200.442-86.017-93.123 19.235-153.791 74.91-153.791 151.321 0 60.225 31.258 114.143 31.258 114.143z" fill="#f58f73"/><circle cx="760.485" cy="378.834" fill="url(#a)" r="49.888"/><path d="M923.2 377.477c-4.084-21.507 7.634-41.8 26.172-45.317 19.426-2.293 26.221 7.155 26.221 7.155a235.436 235.436 0 0 1 9.808 53.5s-5.687 16.915-21.238 17.234c-17.518 3.258-37.25-13.001-40.963-32.572z" fill="url(#b)"/><path d="M952.845 300.778a18.428 18.428 0 1 1-18.427-18.427 18.427 18.427 0 0 1 18.427 18.427zm-146.19.111a18.428 18.428 0 1 1-18.428-18.427 18.427 18.427 0 0 1 18.428 18.427z" fill="#020202"/><path d="M804.515 409.308c-2.284.381 36.144 42.924 64.839 43.194 29.737.281 62.618-41.5 67.628-48.108a.518.518 0 0 0-.428-.835c-12.154.441-125.094 4.591-132.039 5.749z" fill="#fff"/><path d="M804.466 409.224c3.123-11.834 128.7-11.216 132.849-5.22" fill="#f88c79"/><path d="M957.268 242.531c4.653 2.727 7.5 8.2-1.722 7.484-23.455-1.832-51.866-3.087-54.863-5.072-5.28-3.5.964-11.222 6.443-12.983 13.313-4.28 40.274 4.787 50.142 10.571z" fill="#ba7f63"/><path d="M1014.433 135.045c16.846-31.244 1.256-52.755-43.146-65.619C957.645 41 927.763 35.451 887.69 44.257 863.421 10.893 822.948 2.8 764.543 22.684 718.7-21.362 654.268 1.618 627.013 66.729c-44.4 14.841-60.179 37.662-57.529 65.619-42.971-.887-60.339 27.027-53.034 82.7-39.551 7.191-31.461 54.832-21.573 58.427-2.944 17.639 2.873 29.525 22.472 32.36-18.355 34.46-8.04 57.154 30.562 62.024 1.8-17.079 23.648-44.756 55.623-29.448a37.957 37.957 0 0 1 18.157 18.661c13.769 30.539 17.906 46.742 17.906 46.742s29.59-77.1.9-102.473c23.021-13.191 32.622-43.328 35.057-84.5 35.632 10.041 63.293 2.9 80-27.865 25.783 13.386 54.414 6.548 86.293-23.371 20.824 53.77 51.439 75.046 96.181 49.439 47.014 43.546 124.945-3.594 76.405-79.999zm-508.77 134.833s-11.527-17.448-4.494-31.461c3.947-7.865 16.18-13.484 16.18-13.484-12.365 12.716-15.078 28.014-11.686 44.945zm15.281 65.622c-3.5-10.43.027-22.292 8.989-29.664-1.852 20.658 1.873 38.839 9.888 46.742 0-.003-15.167-6.016-18.877-17.078zM667.463 32.572c9.059-15.972 25.85-25.4 43.147-24.27 16.509 1.073 32.359 17.977 32.359 17.977-12.369-9.405-52.256-16.66-75.506 6.293zM952.41 83.808c.092-15.682-16.276-24.716-49.439-26.966 0 0 51.9-2.447 55.731 13.483 1.198 4.987-6.292 13.483-6.292 13.483zm41.349 131.238c20.816-13.228 27.008-33.8 12.585-64.72 0 0 17.374 18.527 13.483 36.854-3.734 17.587-26.068 27.866-26.068 27.866zM607.237 442.464c7.382 20.162 22.4 32.3 44.945 26.967-6.881-11.59-14.461-24.235-18.877-34.158-7.245 6.274-16.317 7.645-26.068 7.191z" fill="#ba7f63"/><path d="M730.414 253.906c-3.895 3.731-5.4 9.719 3.408 6.882 22.394-7.21 49.742-15.007 52.2-17.633 4.327-4.624-3.535-10.694-9.273-11.139-13.943-1.082-38.075 13.984-46.335 21.89z" fill="#ba7f63"/><path d="M667.342 1242.184c-5.788 3.472-34.683 57.444 1.28 62.132 100.587 13.11 347.151 40.892 394.611 21.213 24.808-10.286-136.251-77.956-191.057-101.857a57.952 57.952 0 0 0-38.951-2.728c-78.107 22.148-146.331 9.508-165.883 21.24z" fill="#fdb291"/><path d="M1059.76 1326.687s-161.064-77.373-177.109-84.5c-20.836-9.261 155.373 88.5 155.373 88.5a101.841 101.841 0 0 0 21.736-4zm-80.444 5.487s-116.343-61.051-104.768-56.421c10.013 4.005 133.194 56.517 133.194 56.517zm-49.728-2.015s-46.937-34.727-67.773-30.1c-26.453 5.879-96.079 15.833-96.079 15.833 57.018 6.433 112.209 11.027 163.852 14.267zm-195.106-94.921c-17.638 4.815-51.609 70.337-62.509 69.455-5.407-.438-11.77-1.232-17.364-6.946-11.576-17.363 6.98-52.043 13.891-56.721 6.243-3.517 27.833-5.487 65.982-5.788z" fill="#f58f73"/><path d="M1188.008 1280.933c-9.2-10.9-6.746-35.348 19.812-45.917 32.863-13.076 59.54-83.4 99.572-58.977 3.041 1.855 25.646-20.341 40.6-3.064 2.8 3.231 21.428-13.284 32.17 1.532 2.585 3.566 20.594-14.393 29.105 9.191 12.18 33.749 27.019 90.2 20.681 98.055-9.911 12.283-28.265 0-28.265 0-7.062 14.622-19.378 10.871-33.579.53-7.678 17.13-30.075 10.2-36.963-.53-3.982 11.147-25.437 17.66-36.3 2.19 0 0-36.893 4.391-65.175-.889-14.466-2.699-36.452 4.046-41.658-2.121z" fill="#fdb291"/><path d="M1216.9 1238.624c8.044 1.034 100.948 30.36 64.787 46.429l13.146-1.11c-.129-3.413-19.558-75.7-25.751-75.1-4.785.459 1.377 36.781-7.221 34.373-27.282-7.642-44.961-4.592-44.961-4.592zm90.492-62.585c-3.8.677 20.735 105.533 23.744 105.714 1.321.08-10.461-72.133-17.684-92.2-4.241-11.777-5.581-13.599-6.06-13.514zm41.529-2.639c-4.4 0 12.188 105.957 19.449 109.327 3.553 1.65-13.111-92.5-16.74-104.516-1.318-4.372-1.874-4.811-2.709-4.811zm32.518 2.284c-5.388-.016 16.928 106.778 20.239 106.069 4.972-1.065-9.227-76.189-16.684-99.878-1.95-6.191-2.929-6.19-3.555-6.191z" fill="#f58f73"/></svg></g><g transform="translate(1261.0 1918.0) rotate(0.0 665.0 268.5) scale(1.1580322159338268 1.1560818083961248)"><svg width="1148.5" height="464.5" viewBox="0 0 1148.5 464.5"><rect height="42" rx="18.561" transform="matrix(-1 -0 0 -1 414.5 887)" width="414.5" y="422.5"/><path d="M379.021 464.5H990L1148.5 0 544 .5z" fill="#d5d8d8"/></svg></g></svg>