<svg height="1070.604" viewBox="0 0 923.735 1070.604" width="923.735" xmlns="http://www.w3.org/2000/svg"><path d="m301.441 168.034s11.7-21.088 13-25c5-15-3-29 3-41s14-16 16-36-6-35 5-42 27 6 26 28c13-32 38-53 52-52s14 11 12 15c9 0 12 14 8 22 8 1 11 5 2 26 8-5 14 12 4 21-7.9 7.111-16 16-21 34s-8 31-17 42c-5.447 6.658-17 8-20 12s-11 24-11 24z" fill="#ffb400"/><path d="m353.994 97.85c-.3-.194-.238-.934.113-2.086.181-.573.426-1.254.7-2.046s.647-1.651.991-2.633c.367-.97.78-2.02 1.175-3.165.434-1.127.822-2.359 1.267-3.635.221-.639.406-1.309.624-1.981s.428-1.362.617-2.072c.424-1.406.777-2.884 1.17-4.389.331-1.52.685-3 .944-4.443q.231-1.077.389-2.127c.11-.7.249-1.378.342-2.047.181-1.34.393-2.614.517-3.816.166-1.2.273-2.323.386-3.353.138-1.032.2-1.968.309-2.8s.205-1.548.3-2.14c.209-1.186.49-1.873.844-1.911s.746.579 1.156 1.752a14.239 14.239 0 0 1 .575 2.165 27.127 27.127 0 0 1 .456 2.914c.121 1.087.223 2.282.239 3.568.058 1.289 0 2.662-.063 4.111-.033.724-.12 1.461-.187 2.218s-.16 1.526-.288 2.305c-.21 1.566-.552 3.165-.911 4.8-.421 1.622-.84 3.2-1.362 4.694q-.358 1.128-.789 2.185c-.282.7-.538 1.4-.837 2.062-.6 1.32-1.171 2.571-1.806 3.693-.6 1.14-1.229 2.159-1.829 3.074a27.225 27.225 0 0 1 -1.727 2.391 14.168 14.168 0 0 1 -1.493 1.669c-.894.865-1.524 1.237-1.822 1.043z" fill="#f04e23"/><path d="m384.775 77.676c-.667-.143-.513-4.418.9-11.172a89.681 89.681 0 0 1 3.331-11.684c.789-2.157 1.67-4.41 2.733-6.687s2.251-4.6 3.6-6.908a71.372 71.372 0 0 1 4.362-6.5 62.245 62.245 0 0 1 4.735-5.554 58.351 58.351 0 0 1 4.84-4.5 50.438 50.438 0 0 1 4.65-3.39 39.948 39.948 0 0 1 4.121-2.334 27.5 27.5 0 0 1 3.294-1.38 11.166 11.166 0 0 1 2.2-.56c.527-.069.835-.025.909.137s-.091.435-.465.8-.969.8-1.711 1.395c-.752.571-1.673 1.247-2.716 2.058s-2.218 1.736-3.467 2.81-2.579 2.291-3.959 3.638c-1.358 1.372-2.783 2.858-4.184 4.513s-2.828 3.426-4.187 5.356-2.707 3.968-3.987 6.122-2.426 4.334-3.485 6.463-2 4.232-2.87 6.248c-1.724 4.043-3.108 7.781-4.247 10.947-2.258 6.341-3.672 10.34-4.397 10.182z" fill="#f04e23"/><path d="m403.492 89.965c-.336-.117-.379-.99-.166-2.482a24.291 24.291 0 0 1 .539-2.671c.259-1.026.559-2.2.977-3.457a83.685 83.685 0 0 1 3.339-8.726c.736-1.6 1.5-3.283 2.4-4.975.865-1.711 1.844-3.437 2.856-5.2 1.052-1.74 2.088-3.432 3.166-5.017 1.047-1.6 2.152-3.088 3.193-4.5a83.482 83.482 0 0 1 6.019-7.146c.9-.977 1.779-1.806 2.552-2.529a23.993 23.993 0 0 1 2.076-1.765c1.2-.909 1.987-1.294 2.252-1.056s-.014 1.072-.737 2.37c-.364.646-.835 1.412-1.38 2.3l-1.911 2.949c-1.436 2.161-3.125 4.734-4.976 7.594-.9 1.446-1.89 2.935-2.844 4.523-.985 1.568-1.955 3.221-2.971 4.9-.977 1.7-1.954 3.351-2.848 4.972-.928 1.6-1.753 3.188-2.581 4.678-1.606 3.005-3.039 5.728-4.236 8.031l-1.655 3.1c-.511.906-.954 1.688-1.342 2.32-.79 1.256-1.386 1.904-1.722 1.787z" fill="#f04e23"/><path d="m409.193 105.866c-.33-.134-.374-.9-.168-2.192a19.227 19.227 0 0 1 .518-2.3c.247-.878.537-1.877.933-2.952a68.213 68.213 0 0 1 3.151-7.4c.687-1.349 1.4-2.772 2.235-4.195.8-1.44 1.709-2.889 2.646-4.366.969-1.457 1.925-2.872 2.914-4.193.962-1.338 1.971-2.572 2.924-3.747a68.271 68.271 0 0 1 5.481-5.887c.82-.8 1.616-1.47 2.318-2.053a19.033 19.033 0 0 1 1.886-1.406c1.094-.713 1.815-.984 2.071-.737s.024.988-.606 2.107c-.318.557-.73 1.213-1.213 1.967s-1.072 1.573-1.695 2.5c-1.27 1.818-2.783 3.981-4.462 6.383-.817 1.212-1.709 2.457-2.579 3.784s-1.787 2.689-2.717 4.09l-2.63 4.148c-.858 1.335-1.633 2.655-2.408 3.894l-4.019 6.672c-.593.946-1.1 1.816-1.594 2.565s-.924 1.391-1.3 1.908c-.773 1.03-1.356 1.544-1.686 1.41z" fill="#f04e23"/><path d="m337.434 43.253c-1.373.355-3.119-1.812-3.633-4.891s.426-5.7 1.839-5.808 2.764 2.119 3.243 4.956-.066 5.39-1.449 5.743z" fill="#f04e23"/><path d="m350.738 63.9c-.3 1.4-3.671 1.853-7.581 1.369s-7.061-1.764-7.009-3.193 3.489-2.444 7.649-1.92 7.242 2.359 6.941 3.744z" fill="#f04e23"/><path d="m394.867 36.4a2.113 2.113 0 0 1 -1.77 1.141 4.333 4.333 0 0 1 -4.349-3.059 2.113 2.113 0 0 1 .475-2.052 2.537 2.537 0 0 1 1.956-.662 4.307 4.307 0 0 1 3.651 2.568 2.54 2.54 0 0 1 .037 2.064z" fill="#f04e23"/><path d="m414.683 52.837c-.236.661-1.04 1.081-2.211 1.007a6.918 6.918 0 0 1 -5.92-5.666c-.126-1.166.259-1.989.909-2.253a2.671 2.671 0 0 1 2.251.438 15.193 15.193 0 0 1 4.435 4.245 2.672 2.672 0 0 1 .536 2.229z" fill="#f04e23"/><path d="m424.068 70.357a1.925 1.925 0 0 1 -2.049.667 4.461 4.461 0 0 1 -3.177-5.083 1.926 1.926 0 0 1 1.5-1.549 2.942 2.942 0 0 1 1.992.5 4.547 4.547 0 0 1 2.159 3.454 2.941 2.941 0 0 1 -.425 2.011z" fill="#f04e23"/><path d="m432.891 89.755a1.892 1.892 0 0 1 -2.1.963 5.536 5.536 0 0 1 -4.59-5.749 1.892 1.892 0 0 1 1.4-1.833 2.924 2.924 0 0 1 2.048.666 9.192 9.192 0 0 1 3.04 3.808 2.923 2.923 0 0 1 .202 2.145z" fill="#f04e23"/><path d="m725.442 683.511s32.24-10.4 35.36-14.56 7.081-33.9 15.6-52c8.32-17.68 41.562-36.072 52-21.84 11.439 15.6-14.56 18.72-19.76 28.08-3.388 6.1-2.532 18.531 1.04 24.959 5.2 9.36 16.124 1.9 33.279-4.16 17.68-6.239 30.16-22.879 33.28-35.359s27.039-11.44 23.919 13.52c10.4-11.44 23.92 4.16 14.56 20.8 11.44 0 11.44 17.679 3.12 27.039 6.24 1.04 5.2 30.16-23.92 46.8s-46.8 17.68-66.558 18.72c-15.887.836-30.16-3.12-33.28-3.12s-21.84 13.52-30.16 16.64-39.522-59.279-38.48-65.519z" fill="#ffb400"/><g fill="#f04e23"><path d="m851.122 669.479c-.009-.178.226-.371.67-.574.443-.219 1.1-.382 1.928-.671.414-.136.873-.277 1.373-.421l1.608-.536c1.145-.391 2.432-.863 3.817-1.458s2.872-1.309 4.427-2.143a56.284 56.284 0 0 0 4.788-2.968 58.692 58.692 0 0 0 4.921-3.823c1.633-1.421 3.257-2.97 4.834-4.643a95.988 95.988 0 0 0 8.2-10.236c2.34-3.33 4.331-6.451 6.018-9.085 3.362-5.277 5.61-8.531 6.262-8.2.62.309-.46 4.11-3.057 9.938a88.559 88.559 0 0 1 -5.255 9.957 70.217 70.217 0 0 1 -8.4 11.15 56.948 56.948 0 0 1 -5.356 4.993 49.449 49.449 0 0 1 -5.586 3.94 45 45 0 0 1 -5.512 2.831 38.022 38.022 0 0 1 -5.112 1.744 30.4 30.4 0 0 1 -4.369.821c-.653.059-1.256.12-1.814.143-.561.006-1.072 0-1.53-.011a9.209 9.209 0 0 1 -2.11-.283c-.485-.133-.737-.288-.745-.465z"/><path d="m866.379 682.791c-.04-.354.754-.816 2.187-1.341q.537-.2 1.192-.406l1.4-.52c1-.376 2.151-.7 3.375-1.229l1.936-.746c.67-.258 1.344-.6 2.055-.9 1.433-.579 2.889-1.364 4.442-2.126.774-.385 1.527-.861 2.32-1.295l1.2-.67 1.175-.757c.782-.523 1.624-.98 2.4-1.567l2.4-1.711 2.306-1.84c.777-.584 1.449-1.268 2.166-1.876l1.051-.922q.492-.487.974-.965c.635-.644 1.3-1.237 1.883-1.875 1.159-1.283 2.315-2.467 3.266-3.686.486-.6 1-1.155 1.428-1.729l1.249-1.655c.842-1.033 1.475-2.05 2.111-2.907l.885-1.2c.252-.38.492-.726.717-1.034.9-1.233 1.561-1.87 1.89-1.734s.293 1.034-.072 2.581c-.092.386-.2.813-.335 1.278s-.34.939-.541 1.462a28.834 28.834 0 0 1 -1.559 3.477q-.5.938-1.05 1.96c-.376.677-.837 1.335-1.284 2.04a48.115 48.115 0 0 1 -3.151 4.3c-.584.737-1.259 1.426-1.914 2.161l-1.01 1.1-1.1 1.05c-.755.689-1.475 1.451-2.308 2.1l-2.5 2.029q-1.337.933-2.637 1.844c-.857.621-1.788 1.1-2.659 1.64l-1.312.77-1.335.669c-.887.427-1.735.886-2.6 1.245a47.705 47.705 0 0 1 -5 1.847c-.8.237-1.559.5-2.313.674l-2.173.471a29.01 29.01 0 0 1 -3.772.542c-.559.05-1.075.106-1.555.118s-.924-.011-1.321-.029c-1.593-.073-2.468-.285-2.507-.638z"/><path d="m875.557 705.974c-.035-.354.687-.8 1.958-1.29.629-.285 1.393-.6 2.268-.957.861-.414 1.85-.806 2.892-1.368.531-.253 1.076-.537 1.631-.867.56-.315 1.146-.626 1.726-1.009 1.181-.718 2.412-1.54 3.669-2.47.633-.457 1.275-.936 1.914-1.457.651-.5 1.3-1.04 1.952-1.6 1.317-1.1 2.638-2.309 3.988-3.556 2.682-2.526 5.171-5.061 7.47-7.365s4.294-4.357 5.91-6.144c3.242-3.548 4.955-6.062 5.635-5.762.313.144.315 1-.1 2.4a24.391 24.391 0 0 1 -2.614 5.534 58.927 58.927 0 0 1 -5.333 7.177 98.363 98.363 0 0 1 -7.444 7.914c-1.431 1.322-2.864 2.584-4.334 3.719-.731.571-1.457 1.123-2.2 1.627-.726.524-1.467 1-2.2 1.45a35.8 35.8 0 0 1 -4.325 2.308c-.691.336-1.394.595-2.066.845a17.071 17.071 0 0 1 -1.959.644 25.08 25.08 0 0 1 -3.458.752 22.419 22.419 0 0 1 -2.666.151c-1.482-.092-2.279-.322-2.314-.676z"/><path d="m821.3 593.945c.086.709-.528 1.427-1.539 2.059a16.462 16.462 0 0 1 -8.333 2.076c-1.19-.084-2.069-.43-2.326-1.1s.18-1.525 1.146-2.35a11.608 11.608 0 0 1 8.937-2.227c1.239.279 2.027.839 2.115 1.542z"/><path d="m895.573 613.544a2.731 2.731 0 0 1 -2.107-.11 6.087 6.087 0 0 1 -3.266-3.334 2.735 2.735 0 0 1 -.069-2.11 1.953 1.953 0 0 1 1.97-1 5.074 5.074 0 0 1 4.511 4.6 1.95 1.95 0 0 1 -1.039 1.954z"/><path d="m912.166 626.825a2.9 2.9 0 0 1 -3.654-4.466 2.9 2.9 0 0 1 3.654 4.466z"/><path d="m878.916 645.439c-1.052.959-3.7-.235-5.918-2.667s-3.163-5.18-2.111-6.139 3.7.235 5.918 2.667 3.162 5.18 2.111 6.139z"/><ellipse cx="892.188" cy="659.665" rx="2.576" ry="4.914" transform="matrix(.89534672 -.44536979 .44536979 .89534672 -200.423 466.382)"/><path d="m903.773 682.7a2.539 2.539 0 0 1 -2.012-.438 4.182 4.182 0 0 1 -1.742-4.057 2.536 2.536 0 0 1 1.068-1.761 2.124 2.124 0 0 1 2.1-.043 4.244 4.244 0 0 1 2.064 4.808 2.124 2.124 0 0 1 -1.478 1.491z"/><path d="m904.629 702.774c-1.426-.075-2.509-1.5-2.66-3.185s.679-3.275 2.07-3.6a2.165 2.165 0 0 1 1.982.672 4.235 4.235 0 0 1 .444 5.106 2.167 2.167 0 0 1 -1.836 1.007z"/><path d="m799.338 615.92c-.4 1.358-4.244 1.415-8.467-.187s-7.067-4.179-6.47-5.464 4.259-.877 8.293.645 7.052 3.637 6.644 5.006z"/><path d="m789.831 620.3a2.181 2.181 0 0 1 -1.491 1.422 3.773 3.773 0 0 1 -4.365-2.036 2.18 2.18 0 0 1 .131-2.056 2.577 2.577 0 0 1 1.714-1.086 3.576 3.576 0 0 1 3.742 1.746 2.57 2.57 0 0 1 .269 2.01z"/><path d="m44.987 607.131s31.454-103.1 72.454-163.1 162-272 162-272 25 0 55 10 50 32 50 32-38 76-56 132c-12.87 40.042-51 144-51 144l-92 55-25.922 35.732-108.078 30.271"/></g><path d="m276.441 174.034c-2-2 8-24 11-25 3.8-1.265 28 3 57 13s59 33 62 38-13 24-17 24c-2.828 0-18-16-50-30-31.149-13.628-60-17-63-20z" fill="#04294f"/><path d="m219.847 200.163c30.713 1.608 46.594 60.871 75.719 110.316 27.733 47.082 60.5 90.639 44.175 126.231s-48.82 53.725-63.355 64.316c.3 42.2 6.3 107.876-65.717 98.01s-67.947-32.834-68.325-39.307 13.788-41.938 4.094-78.175-110.483-131.017-98.593-186.916 123.143-97.038 172.002-94.475z" fill="#ffb400"/><path d="m254.709 230.888s18.761-39.269 1.832-69.671-47.6-58.133-96.247-35.512c-50.583 23.52-110.623 51.923-139.962 105.595-26.6 48.654-27.961 95.806 1.017 147.153s81.687 101.308 91.837 108.293 44.181 13.324 72.214-5.3c25.008-16.615 35.327-37.444 28.512-49.293-9.638-16.756-30.922-57.194-54.285-76.93-22.772-19.236 4.968-44.67 17.842-28.1s9.323 11.362 17.568 22.788 31.6 3.567 23.229-10.016-28.6-44.875-33.671-57.568 1.858-42.327 23.945-53.361 36.901-15.932 46.169 1.922z" fill="#04294f"/><path d="m261.253 293.357c5.248 10.257 6.949 18.977 1 22.92-6.162 4.085-12.753-3.966-18-14.223s-8.563-18.145-1-22.919c7.973-5.035 12.753 3.965 18 14.222z" fill="#04294f"/><ellipse cx="170.449" cy="343.633" fill="#f04e23" rx="6.124" ry="11.432" transform="matrix(.83540468 -.54963535 .54963535 .83540468 -160.819 150.247)"/><path d="m254.152 259.317c.034.592-.476 1.194-1.395 1.774a26.417 26.417 0 0 1 -3.761 1.83c-.757.346-1.583.671-2.424 1.069-.429.178-.859.381-1.292.6s-.893.4-1.331.661-.908.459-1.36.729-.914.541-1.387.805q-.682.461-1.4.906c-.478.3-.933.668-1.419.992s-.944.695-1.405 1.046-.93.676-1.359 1.061l-1.311 1.064c-.432.349-.832.732-1.246 1.076-.835.679-1.6 1.382-2.349 2.029-.763.627-1.462 1.244-2.122 1.8s-1.32 1.017-1.886 1.45a11.837 11.837 0 0 1 -1.595 1.021c-.974.5-1.755.638-2.249.311s-.655-1.088-.505-2.206a12.078 12.078 0 0 1 .452-1.932 18.1 18.1 0 0 1 .974-2.353 20.7 20.7 0 0 1 1.493-2.691 25.671 25.671 0 0 1 2.067-2.9c.4-.488.794-1 1.25-1.49l1.434-1.468a20.424 20.424 0 0 1 1.6-1.433 19.72 19.72 0 0 1 1.76-1.372c.629-.427 1.228-.873 1.876-1.244s1.294-.726 1.93-1.065c.662-.3 1.317-.586 1.96-.855s1.307-.453 1.937-.661a17.6 17.6 0 0 1 1.881-.472 14.093 14.093 0 0 1 1.789-.3 20.939 20.939 0 0 1 3.208-.168 13.672 13.672 0 0 1 4.526.821c1.046.448 1.624.973 1.659 1.565z" fill="#04294f"/><path d="m221.891 354.136a2.283 2.283 0 0 1 1.1 1.423 3.388 3.388 0 0 1 .14 1.129 5.134 5.134 0 0 1 -.205 1.345 8.288 8.288 0 0 1 -1.582 2.983 10.172 10.172 0 0 1 -1.4 1.406 10.727 10.727 0 0 1 -3.7 2.045 10.213 10.213 0 0 1 -1.934.433 8.3 8.3 0 0 1 -3.367-.249 5.162 5.162 0 0 1 -1.247-.543 3.417 3.417 0 0 1 -.881-.72 2.282 2.282 0 0 1 -.619-1.689 3.192 3.192 0 0 1 .677-1.654 8.535 8.535 0 0 1 .638-.735c.235-.245.49-.453.758-.694a19.377 19.377 0 0 1 1.76-1.293c.31-.225.644-.4.974-.62.34-.192.676-.41 1.043-.592.349-.213.712-.381 1.056-.568.361-.162.688-.351 1.043-.494a19.08 19.08 0 0 1 2.031-.8c.348-.1.659-.2.991-.273a8.643 8.643 0 0 1 .963-.147 3.176 3.176 0 0 1 1.761.307z" fill="#04294f"/><path d="m313 358.712c.3-.017.589.182.877.615a5.512 5.512 0 0 1 .715 1.971 13.058 13.058 0 0 1 .179 3.192 20.294 20.294 0 0 1 -.673 4.145 26.393 26.393 0 0 1 -1.781 4.762 29.3 29.3 0 0 1 -3.071 4.985 30.37 30.37 0 0 1 -4.437 4.751 32.524 32.524 0 0 1 -5.713 4.017 34.728 34.728 0 0 1 -6.369 2.748c-1.057.361-2.124.6-3.156.862-1.046.191-2.062.428-3.065.536a37.279 37.279 0 0 1 -5.67.336 40.347 40.347 0 0 1 -4.866-.379 32.9 32.9 0 0 1 -3.9-.849 18.017 18.017 0 0 1 -2.84-1.032c-1.517-.734-2.281-1.413-2.184-2s1.04-1.023 2.61-1.319c.784-.127 1.731-.317 2.809-.437 1.078-.1 2.289-.32 3.61-.438 1.315-.208 2.744-.37 4.245-.652 1.5-.255 3.08-.59 4.7-1 .818-.185 1.621-.473 2.459-.695.812-.294 1.661-.538 2.484-.878a38.512 38.512 0 0 0 4.954-2.3 34.268 34.268 0 0 0 4.516-2.987 32.568 32.568 0 0 0 3.763-3.379 35.384 35.384 0 0 0 3-3.523 39.321 39.321 0 0 0 2.272-3.4c.638-1.082 1.194-2.093 1.638-3.006.47-.911.827-1.72 1.162-2.4a12.687 12.687 0 0 1 .88-1.612 1.255 1.255 0 0 1 .852-.634z" fill="#04294f"/><path d="m272.828 502.149c.2 1.157-1.653 2.6-4.936 3.8a45.918 45.918 0 0 1 -26.542.55c-3.329-1.066-5.243-2.427-5.09-3.591.157-1.186 2.313-1.963 5.6-2.46a105.179 105.179 0 0 1 12.621-.85 105.353 105.353 0 0 1 12.646.326c3.31.36 5.496 1.047 5.701 2.225z" fill="#f04e23"/><path d="m751.441 771.034s-105.67 49-181 49c-75 0-146-13-198-48-1 103 1 161 21 224 12.96 40.84 22.15 63.6 27 74.57q-38.973-1.622-74.5-4.205c-49.5-17.365-117.5-24.365-154.451-17.029-38.206-5.873-72.073-12.491-101.979-19.436-17.07-35.9-35.594-92.487-48.07-168.9-16-98-11.56-139.86-7-193 6-70 26-101 38-130s31 21 31 21 65-17 134-7 133 32 170 78 84.79 85.96 166 82c82-4 147-39 147-39s26 26 31 55 0 43 0 43z" fill="#f04e23"/><path d="m388.441 604.034c0 5.66-52 13-63 96s-12 200 5 297c5.329 30.405 10.93 53.53 15.5 69.36-58.01-4.17-109.31-10.08-154.53-17.04-6.82-40.89-15.96-105.8-18.97-174.32-5-114-4-158 16-227s51-84 65-92c12.09-6.91 49-4 75 5 47.23 16.35 60 36 60 43z" fill="#04294f"/><path d="m712.441 674.034c0-5 26-16 28-16s23 12 36 50c14.231 41.6 7 66 6 68s-33 10-36 5c-2.771-4.618 5-29-5-60-8.667-26.868-29-44-29-47z" fill="#04294f"/><path d="m66.941 564.534c-.189-.562.594-1.411 2.186-2.47a28.106 28.106 0 0 1 2.981-1.712c1.189-.594 2.549-1.261 4.09-1.895s3.234-1.327 5.09-1.956c1.846-.661 3.845-1.292 5.966-1.9s4.365-1.193 6.711-1.712c2.342-.537 4.789-.992 7.3-1.421 2.517-.389 4.98-.733 7.367-.97s4.691-.418 6.887-.527a110.093 110.093 0 0 1 11.666.015c1.658.086 3.157.244 4.474.4a30.277 30.277 0 0 1 3.377.586c1.855.444 2.885.969 2.9 1.562s-.973 1.2-2.773 1.779c-.9.292-2 .571-3.283.869s-2.737.565-4.342.864c-3.212.588-7.032 1.154-11.245 1.8l-6.6 1-7.056 1.1-7.032 1.194-6.544 1.16-5.948 1.081c-1.873.315-3.612.657-5.22.9s-3.063.5-4.364.649-2.428.271-3.372.307c-1.886.082-3.027-.137-3.216-.703z" fill="#04294f"/><path d="m373.014 770.37c-.218.551-1.188.747-2.805.606a14.184 14.184 0 0 1 -2.854-.535 27.068 27.068 0 0 1 -3.614-1.2l-2.041-.859c-.7-.32-1.4-.7-2.135-1.076-1.489-.741-2.967-1.69-4.541-2.68-1.518-1.051-3.132-2.154-4.671-3.433-1.583-1.24-3.112-2.629-4.664-4.067-1.515-1.469-2.964-2.93-4.282-4.4-1.341-1.455-2.547-2.923-3.683-4.328a80.669 80.669 0 0 1 -5.517-7.811c-2.844-4.642-4.058-7.9-3.143-8.638s3.825 1.171 7.808 4.751c1.992 1.789 4.266 3.975 6.737 6.407l3.864 3.789 4.135 4.01c1.439 1.331 2.816 2.663 4.193 3.879 1.346 1.264 2.707 2.381 3.967 3.511 1.3 1.058 2.5 2.138 3.69 3.05l1.69 1.379 1.59 1.238c1 .834 1.945 1.509 2.751 2.182s1.506 1.264 2.073 1.778c1.125 1.043 1.671 1.896 1.452 2.447z" fill="#04294f"/><path d="m219.327 145.776c-.077.588-.957 1.057-2.456 1.4-.749.168-1.654.315-2.7.469s-2.216.241-3.51.386l-9 .759c-1.68.172-3.443.284-5.263.493l-5.629.594-5.615.721c-1.819.216-3.56.514-5.235.734l-8.919 1.339c-1.293.158-2.456.339-3.5.434s-1.964.157-2.732.166c-1.538.008-2.5-.244-2.713-.8s.358-1.36 1.592-2.35a17.2 17.2 0 0 1 2.348-1.577 34.232 34.232 0 0 1 3.28-1.695 60.61 60.61 0 0 1 9-3.253c1.742-.457 3.576-.944 5.508-1.3 1.923-.4 3.937-.682 6-.952 2.071-.214 4.1-.4 6.06-.458 1.959-.1 3.857-.053 5.657-.01a60.637 60.637 0 0 1 9.509 1.089 34.045 34.045 0 0 1 3.583.893 17.158 17.158 0 0 1 2.647.992c1.425.686 2.161 1.338 2.088 1.926z" fill="#ffb400"/><path d="m38.379 280.991c-.591-.055-1.074-.839-1.438-2.234a14.824 14.824 0 0 1 -.422-2.53 29.725 29.725 0 0 1 -.146-3.335 53.273 53.273 0 0 1 .79-8.6c.3-1.6.606-3.278 1.061-4.988.418-1.72.958-3.472 1.535-5.258.622-1.77 1.252-3.492 1.961-5.114.672-1.636 1.444-3.163 2.175-4.612a53.217 53.217 0 0 1 4.575-7.32 29.7 29.7 0 0 1 2.134-2.566 14.982 14.982 0 0 1 1.868-1.759c1.135-.89 1.994-1.221 2.5-.908s.606 1.239.374 2.621c-.12.689-.317 1.5-.563 2.417s-.594 1.922-.945 3.042c-.75 2.214-1.664 4.809-2.7 7.66-.489 1.437-1.059 2.918-1.579 4.479l-1.659 4.807c-.543 1.654-1.073 3.27-1.585 4.831-.531 1.556-.974 3.08-1.455 4.52-.9 2.894-1.748 5.513-2.492 7.729-.4 1.1-.731 2.112-1.088 2.994s-.694 1.643-1.015 2.264c-.654 1.241-1.296 1.915-1.886 1.86z" fill="#ffb400"/><path d="m68.087 317.464c-.549.225-1.3-.133-2.186-1a11.252 11.252 0 0 1 -1.405-1.678 22.284 22.284 0 0 1 -1.495-2.4 39.656 39.656 0 0 1 -2.858-6.7c-.406-1.308-.832-2.687-1.149-4.145-.351-1.452-.614-2.976-.858-4.54-.2-1.57-.373-3.107-.44-4.6-.1-1.488-.076-2.932-.05-4.3a39.677 39.677 0 0 1 .879-7.233 22.128 22.128 0 0 1 .768-2.72 11.245 11.245 0 0 1 .882-2c.614-1.079 1.232-1.631 1.821-1.568s1.1.732 1.51 1.857a20.673 20.673 0 0 1 .579 2.019c.187.779.33 1.655.51 2.617.313 1.923.637 4.183.956 6.672.335 2.475.7 5.2 1.088 8.053.425 2.851.829 5.567 1.2 8.038.387 2.479.7 4.739.939 6.674.095.975.2 1.855.239 2.655a20.46 20.46 0 0 1 .005 2.1c-.086 1.191-.387 1.974-.935 2.199z" fill="#ffb400"/><path d="m711.941 788.534c.231.546-.633 1.514-2.408 2.8a35.209 35.209 0 0 1 -3.333 2.131c-1.329.765-2.856 1.613-4.585 2.453-1.722.859-3.629 1.754-5.706 2.641-2.068.917-4.317 1.789-6.686 2.707-2.382.874-4.889 1.784-7.519 2.622-2.623.867-5.364 1.671-8.18 2.461s-5.584 1.48-8.265 2.107-5.275 1.186-7.757 1.653c-4.96.969-9.459 1.633-13.259 2.068-7.6.847-12.415.713-12.651-.441s4.145-3.139 11.363-5.493c3.6-1.189 7.925-2.457 12.711-3.832l15.566-4.339 15.523-4.324 6.779-1.9 5.941-1.61c1.83-.463 3.482-.9 4.958-1.234s2.76-.59 3.831-.759c2.143-.33 3.446-.257 3.677.289z" fill="#04294f"/></svg>